<svg xmlns="http://www.w3.org/2000/svg" viewBox="0 0 1200 440" role="img" aria-label="First saved trick: K spades, 9 spades, 2 spades, A spades; player 3 takes the trick">
<style>
  .micro{font:16px Consolas,monospace;letter-spacing:1.2px;fill:#c7c4bc}
  .corner{font:700 27px Arial,sans-serif;fill:#20211f}
  .face{font:700 80px Arial,sans-serif;fill:#20211f}
  .tag{font:15px Consolas,monospace;fill:#514e48}
  .label{font:16px Consolas,monospace;letter-spacing:.6px;fill:#ddd8cd}
</style>
<rect width="1200" height="440" fill="#151917"/>
<path d="M72 72H1128M72 397H1128" stroke="#565c55"/>
<text x="72" y="48" class="micro">SAVED SELF-PLAY / FIRST TRICK</text>
<text x="1128" y="48" class="micro" text-anchor="end">TRUMP ♦ / FOUR SPADES</text>
<path d="M56 375H1142" stroke="#425c7b" stroke-width="2"/>
<g transform="translate(72 104)">
      <rect x="0" y="0" width="182" height="244" fill="#f4f0e7" stroke="#d6d0c5" stroke-width="2"/>
      <text x="16" y="34" class="corner">K♠</text>
      <text x="91.0" y="142.0" class="face" text-anchor="middle">K♠</text>
      <line x1="16" y1="200" x2="166" y2="200" stroke="#c7c0b4"/>
      <text x="16" y="227" class="tag">P0 / TEAM 0</text>
      <text x="0" y="276" class="label">01 / LEAD</text>
    </g>
<g transform="translate(342 104)">
      <rect x="0" y="0" width="182" height="244" fill="#f4f0e7" stroke="#d6d0c5" stroke-width="2"/>
      <text x="16" y="34" class="corner">9♠</text>
      <text x="91.0" y="142.0" class="face" text-anchor="middle">9♠</text>
      <line x1="16" y1="200" x2="166" y2="200" stroke="#c7c0b4"/>
      <text x="16" y="227" class="tag">P1 / TEAM 1</text>
      <text x="0" y="276" class="label">02 / FOLLOW</text>
    </g>
<g transform="translate(612 104)">
      <rect x="0" y="0" width="182" height="244" fill="#f4f0e7" stroke="#d6d0c5" stroke-width="2"/>
      <text x="16" y="34" class="corner">2♠</text>
      <text x="91.0" y="142.0" class="face" text-anchor="middle">2♠</text>
      <line x1="16" y1="200" x2="166" y2="200" stroke="#c7c0b4"/>
      <text x="16" y="227" class="tag">P2 / TEAM 0</text>
      <text x="0" y="276" class="label">03 / FOLLOW</text>
    </g>
<g transform="translate(882 92)">
      <rect x="0" y="0" width="182" height="244" fill="#f4f0e7" stroke="#83a7d8" stroke-width="4"/>
      <text x="16" y="34" class="corner">A♠</text>
      <text x="91.0" y="142.0" class="face" text-anchor="middle">A♠</text>
      <line x1="16" y1="200" x2="166" y2="200" stroke="#c7c0b4"/>
      <text x="16" y="227" class="tag">P3 / TEAM 1</text>
      <text x="0" y="276" class="label">04 / WINNER</text>
    </g>
<circle cx="1127" cy="375" r="5" fill="#83a7d8"/>
</svg>