<svg xmlns="http://www.w3.org/2000/svg" viewBox="0 0 1380 675" width="1380" height="675"><rect x="0" y="0" width="1380" height="675" rx="0" fill="#141717" stroke="none" stroke-width="1"/><text x="42" y="51" fill="#e8e4dc" font-family="Arial" font-size="22" font-weight="700" text-anchor="start">FIVE RETAINED ENVELOPES / MATCHED HEIGHT AXIS</text><text x="42" y="83" fill="#adaea9" font-family="Arial" font-size="16" font-weight="400" text-anchor="start">Source mesh vertex-bin measurement in model centimetres. This is geometry, not stress or deflection.</text><line x1="153" y1="125" x2="153" y2="568" stroke="#414642" stroke-width="1" stroke-dasharray="5 5"/><path d="M41.1,562.3 L45.4,557.0 L48.9,551.7 L48.3,546.4 L47.8,541.1 L51.5,535.8 L55.6,530.5 L53.5,525.2 L52.7,519.8 L55.5,514.5 L58.7,509.2 L56.7,503.9 L55.9,498.6 L58.8,493.3 L61.5,488.0 L61.1,482.7 L59.7,477.3 L62.7,472.0 L65.5,466.7 L65.4,461.4 L64.1,456.1 L65.7,450.8 L70.1,445.5 L70.2,440.2 L69.1,434.8 L70.8,429.5 L75.4,424.2 L75.7,418.9 L74.8,413.6 L76.5,408.3 L79.7,403.0 L82.1,397.7 L80.9,392.3 L82.6,387.0 L86.0,381.7 L88.5,376.4 L87.5,371.1 L87.9,365.8 L91.7,360.5 L92.7,355.2 L90.8,349.8 L90.5,344.5 L94.6,339.2 L95.8,333.9 L94.5,328.6 L93.8,323.3 L98.0,318.0 L99.4,312.7 L98.2,307.3 L97.5,302.0 L100.5,296.7 L104.1,291.4 L102.5,286.1 L101.9,280.8 L104.9,275.5 L108.7,270.2 L107.3,264.8 L106.7,259.5 L109.8,254.2 L112.8,248.9 L113.0,243.6 L112.0,238.3 L115.2,233.0 L118.3,227.7 L118.6,222.3 L117.7,217.0 L119.3,211.7 L123.9,206.4 L123.9,201.1 L122.5,195.8 L123.8,190.5 L127.4,185.2 L126.5,179.8 L125.1,174.5 L126.4,169.2 L130.2,163.9 L129.5,158.6 L128.2,153.3 L129.5,148.0 L132.2,142.7 L173.8,142.7 L176.5,148.0 L177.8,153.3 L176.5,158.6 L175.8,163.9 L179.6,169.2 L180.9,174.5 L179.5,179.8 L178.6,185.2 L182.2,190.5 L183.5,195.8 L182.1,201.1 L182.1,206.4 L186.7,211.7 L188.3,217.0 L187.4,222.3 L187.7,227.7 L190.8,233.0 L194.0,238.3 L193.0,243.6 L193.2,248.9 L196.2,254.2 L199.3,259.5 L198.7,264.8 L197.3,270.2 L201.1,275.5 L204.1,280.8 L203.5,286.1 L201.9,291.4 L205.5,296.7 L208.5,302.0 L207.8,307.3 L206.6,312.7 L208.0,318.0 L212.2,323.3 L211.5,328.6 L210.2,333.9 L211.4,339.2 L215.5,344.5 L215.2,349.8 L213.3,355.2 L214.3,360.5 L218.1,365.8 L218.5,371.1 L217.5,376.4 L220.0,381.7 L223.4,387.0 L225.1,392.3 L223.9,397.7 L226.3,403.0 L229.5,408.3 L231.2,413.6 L230.3,418.9 L230.6,424.2 L235.2,429.5 L236.9,434.8 L235.8,440.2 L235.9,445.5 L240.3,450.8 L241.9,456.1 L240.6,461.4 L240.5,466.7 L243.3,472.0 L246.3,477.3 L244.9,482.7 L244.5,488.0 L247.2,493.3 L250.1,498.6 L249.3,503.9 L247.3,509.2 L250.5,514.5 L253.3,519.8 L252.5,525.2 L250.4,530.5 L254.5,535.8 L258.2,541.1 L257.7,546.4 L257.1,551.7 L260.6,557.0 L264.9,562.3 Z" fill="#343c3d" stroke="#b7c0bf" stroke-width="2"/><text x="153" y="601" fill="#e8e4dc" font-family="Arial" font-size="18" font-weight="700" text-anchor="middle">STATE 01</text><text x="153" y="626" fill="#b4b2aa" font-family="Arial" font-size="14" font-weight="400" text-anchor="middle">156.5 cm high</text><text x="153" y="649" fill="#b4b2aa" font-family="Arial" font-size="14" font-weight="400" text-anchor="middle">31.5 cm max envelope</text><line x1="411" y1="125" x2="411" y2="568" stroke="#414642" stroke-width="1" stroke-dasharray="5 5"/><path d="M299.1,562.3 L303.4,557.0 L306.9,551.7 L306.3,546.4 L305.8,541.1 L309.5,535.8 L313.6,530.5 L311.5,525.2 L310.7,519.8 L313.5,514.5 L316.7,509.2 L314.7,503.9 L313.9,498.6 L316.8,493.3 L319.5,488.0 L319.1,482.7 L317.7,477.3 L320.7,472.0 L323.5,466.7 L323.4,461.4 L322.1,456.1 L323.7,450.8 L328.1,445.5 L328.2,440.2 L327.1,434.8 L328.8,429.5 L333.4,424.2 L333.7,418.9 L332.8,413.6 L334.5,408.3 L337.7,403.0 L340.1,397.7 L338.9,392.3 L340.6,387.0 L344.0,381.7 L346.5,376.4 L345.5,371.1 L345.9,365.8 L349.7,360.5 L350.7,355.2 L348.8,349.8 L348.5,344.5 L352.6,339.2 L353.8,333.9 L352.5,328.6 L351.8,323.3 L356.0,318.0 L357.4,312.7 L356.2,307.3 L355.5,302.0 L358.5,296.7 L362.1,291.4 L360.5,286.1 L359.9,280.8 L362.9,275.5 L366.7,270.2 L365.3,264.8 L364.7,259.5 L367.8,254.2 L370.8,248.9 L371.0,243.6 L370.0,238.3 L373.2,233.0 L376.3,227.7 L376.6,222.3 L375.7,217.0 L377.3,211.7 L381.9,206.4 L381.9,201.1 L380.5,195.8 L381.8,190.5 L385.4,185.2 L384.5,179.8 L383.1,174.5 L384.4,169.2 L388.2,163.9 L387.5,158.6 L386.2,153.3 L387.5,148.0 L390.2,142.7 L431.8,142.7 L434.5,148.0 L435.8,153.3 L434.5,158.6 L433.8,163.9 L437.6,169.2 L438.9,174.5 L437.5,179.8 L436.6,185.2 L440.2,190.5 L441.5,195.8 L440.1,201.1 L440.1,206.4 L444.7,211.7 L446.3,217.0 L445.4,222.3 L445.7,227.7 L448.8,233.0 L452.0,238.3 L451.0,243.6 L451.2,248.9 L454.2,254.2 L457.3,259.5 L456.7,264.8 L455.3,270.2 L459.1,275.5 L462.1,280.8 L461.5,286.1 L459.9,291.4 L463.5,296.7 L466.5,302.0 L465.8,307.3 L464.6,312.7 L466.0,318.0 L470.2,323.3 L469.5,328.6 L468.2,333.9 L469.4,339.2 L473.5,344.5 L473.2,349.8 L471.3,355.2 L472.3,360.5 L476.1,365.8 L476.5,371.1 L475.5,376.4 L478.0,381.7 L481.4,387.0 L483.1,392.3 L481.9,397.7 L484.3,403.0 L487.5,408.3 L489.2,413.6 L488.3,418.9 L488.6,424.2 L493.2,429.5 L494.9,434.8 L493.8,440.2 L493.9,445.5 L498.3,450.8 L499.9,456.1 L498.6,461.4 L498.5,466.7 L501.3,472.0 L504.3,477.3 L502.9,482.7 L502.5,488.0 L505.2,493.3 L508.1,498.6 L507.3,503.9 L505.3,509.2 L508.5,514.5 L511.3,519.8 L510.5,525.2 L508.4,530.5 L512.5,535.8 L516.2,541.1 L515.7,546.4 L515.1,551.7 L518.6,557.0 L522.9,562.3 Z" fill="#343c3d" stroke="#b7c0bf" stroke-width="2"/><text x="411" y="601" fill="#e8e4dc" font-family="Arial" font-size="18" font-weight="700" text-anchor="middle">STATE 02</text><text x="411" y="626" fill="#b4b2aa" font-family="Arial" font-size="14" font-weight="400" text-anchor="middle">156.5 cm high</text><text x="411" y="649" fill="#b4b2aa" font-family="Arial" font-size="14" font-weight="400" text-anchor="middle">31.5 cm max envelope</text><line x1="669" y1="125" x2="669" y2="568" stroke="#414642" stroke-width="1" stroke-dasharray="5 5"/><path d="M595.3,562.3 L594.2,557.0 L590.9,551.7 L587.9,546.4 L586.3,541.1 L588.5,535.8 L587.6,530.5 L585.1,525.2 L583.7,519.8 L585.6,514.5 L587.0,509.2 L583.8,503.9 L582.5,498.6 L584.6,493.3 L586.3,488.0 L584.4,482.7 L582.1,477.3 L584.3,472.0 L586.2,466.7 L584.4,461.4 L582.3,456.1 L584.5,450.8 L586.6,445.5 L584.9,440.2 L582.9,434.8 L584.1,429.5 L587.3,424.2 L585.8,418.9 L583.8,413.6 L585.1,408.3 L588.4,403.0 L587.2,397.7 L585.2,392.3 L586.5,387.0 L588.8,381.7 L589.5,376.4 L586.9,371.1 L588.2,365.8 L590.7,360.5 L591.5,355.2 L589.1,349.8 L589.0,344.5 L592.8,339.2 L593.8,333.9 L592.3,328.6 L591.4,323.3 L595.4,318.0 L596.5,312.7 L595.1,307.3 L594.3,302.0 L597.1,296.7 L600.3,291.4 L598.3,286.1 L597.6,280.8 L600.5,275.5 L603.9,270.2 L602.1,264.8 L601.4,259.5 L604.4,254.2 L607.2,248.9 L607.1,243.6 L605.9,238.3 L609.0,233.0 L612.0,227.7 L612.2,222.3 L611.1,217.0 L612.8,211.7 L617.6,206.4 L618.2,201.1 L617.4,195.8 L619.3,190.5 L624.5,185.2 L625.8,179.8 L625.4,174.5 L627.4,169.2 L631.4,163.9 L635.5,158.6 L635.9,153.3 L638.9,148.0 L644.1,142.7 L693.9,142.7 L699.1,148.0 L702.1,153.3 L702.5,158.6 L706.6,163.9 L710.6,169.2 L712.6,174.5 L712.2,179.8 L713.5,185.2 L718.7,190.5 L720.6,195.8 L719.8,201.1 L720.4,206.4 L725.2,211.7 L726.9,217.0 L725.8,222.3 L726.0,227.7 L729.0,233.0 L732.1,238.3 L730.9,243.6 L730.8,248.9 L733.6,254.2 L736.6,259.5 L735.9,264.8 L734.1,270.2 L737.5,275.5 L740.4,280.8 L739.7,286.1 L737.7,291.4 L740.9,296.7 L743.7,302.0 L742.9,307.3 L741.5,312.7 L742.6,318.0 L746.6,323.3 L745.7,328.6 L744.2,333.9 L745.2,339.2 L749.0,344.5 L748.9,349.8 L746.5,355.2 L747.3,360.5 L749.8,365.8 L751.1,371.1 L748.5,376.4 L749.2,381.7 L751.5,387.0 L752.8,392.3 L750.8,397.7 L749.6,403.0 L752.9,408.3 L754.2,413.6 L752.2,418.9 L750.7,424.2 L753.9,429.5 L755.1,434.8 L753.1,440.2 L751.4,445.5 L753.5,450.8 L755.7,456.1 L753.6,461.4 L751.8,466.7 L753.7,472.0 L755.9,477.3 L753.6,482.7 L751.7,488.0 L753.4,493.3 L755.5,498.6 L754.2,503.9 L751.0,509.2 L752.4,514.5 L754.3,519.8 L752.9,525.2 L750.4,530.5 L749.5,535.8 L751.7,541.1 L750.1,546.4 L747.1,551.7 L743.8,557.0 L742.7,562.3 Z" fill="#343c3d" stroke="#b7c0bf" stroke-width="2"/><text x="669" y="601" fill="#e8e4dc" font-family="Arial" font-size="18" font-weight="700" text-anchor="middle">STATE 03</text><text x="669" y="626" fill="#b4b2aa" font-family="Arial" font-size="14" font-weight="400" text-anchor="middle">156.2 cm high</text><text x="669" y="649" fill="#b4b2aa" font-family="Arial" font-size="14" font-weight="400" text-anchor="middle">24.5 cm max envelope</text><line x1="927" y1="125" x2="927" y2="568" stroke="#414642" stroke-width="1" stroke-dasharray="5 5"/><path d="M847.4,562.3 L851.5,557.0 L851.5,551.7 L848.6,546.4 L847.2,541.1 L851.4,535.8 L852.8,530.5 L848.6,525.2 L847.1,519.8 L850.0,514.5 L852.9,509.2 L848.7,503.9 L847.3,498.6 L850.2,493.3 L853.2,488.0 L850.5,482.7 L847.8,477.3 L850.7,472.0 L853.7,466.7 L851.2,461.4 L848.5,456.1 L851.6,450.8 L854.6,445.5 L852.3,440.2 L849.7,434.8 L851.3,429.5 L856.0,424.2 L853.8,418.9 L851.4,413.6 L853.0,408.3 L857.8,403.0 L856.0,397.7 L853.6,392.3 L855.3,387.0 L858.7,381.7 L859.9,376.4 L856.6,371.1 L858.4,365.8 L861.9,360.5 L863.4,355.2 L860.7,349.8 L860.4,344.5 L865.9,339.2 L867.6,333.9 L865.7,328.6 L864.8,323.3 L870.4,318.0 L872.1,312.7 L870.2,307.3 L869.3,302.0 L873.0,296.7 L877.5,291.4 L874.5,286.1 L873.5,280.8 L877.0,275.5 L881.3,270.2 L878.2,264.8 L877.1,259.5 L880.5,254.2 L884.0,248.9 L882.3,243.6 L880.1,238.3 L883.4,233.0 L886.7,227.7 L884.9,222.3 L882.6,217.0 L884.2,211.7 L889.0,206.4 L887.1,201.1 L884.7,195.8 L886.2,190.5 L890.9,185.2 L888.8,179.8 L886.4,174.5 L887.9,169.2 L891.0,163.9 L891.5,158.6 L887.8,153.3 L889.3,148.0 L892.3,142.7 L961.7,142.7 L964.7,148.0 L966.2,153.3 L962.5,158.6 L963.0,163.9 L966.1,169.2 L967.6,174.5 L965.2,179.8 L963.1,185.2 L967.8,190.5 L969.3,195.8 L966.9,201.1 L965.0,206.4 L969.8,211.7 L971.4,217.0 L969.1,222.3 L967.3,227.7 L970.6,233.0 L973.9,238.3 L971.7,243.6 L970.0,248.9 L973.5,254.2 L976.9,259.5 L975.8,264.8 L972.7,270.2 L977.0,275.5 L980.5,280.8 L979.5,286.1 L976.5,291.4 L981.0,296.7 L984.7,302.0 L983.8,307.3 L981.9,312.7 L983.6,318.0 L989.2,323.3 L988.3,328.6 L986.4,333.9 L988.1,339.2 L993.6,344.5 L993.3,349.8 L990.6,355.2 L992.1,360.5 L995.6,365.8 L997.4,371.1 L994.1,376.4 L995.3,381.7 L998.7,387.0 L1000.4,392.3 L998.0,397.7 L996.2,403.0 L1001.0,408.3 L1002.6,413.6 L1000.2,418.9 L998.0,424.2 L1002.7,429.5 L1004.3,434.8 L1001.7,440.2 L999.4,445.5 L1002.4,450.8 L1005.5,456.1 L1002.8,461.4 L1000.3,466.7 L1003.3,472.0 L1006.2,477.3 L1003.5,482.7 L1000.8,488.0 L1003.8,493.3 L1006.7,498.6 L1005.3,503.9 L1001.1,509.2 L1004.0,514.5 L1006.9,519.8 L1005.4,525.2 L1001.2,530.5 L1002.6,535.8 L1006.8,541.1 L1005.4,546.4 L1002.5,551.7 L1002.5,557.0 L1006.6,562.3 Z" fill="#343c3d" stroke="#b7c0bf" stroke-width="2"/><text x="927" y="601" fill="#e8e4dc" font-family="Arial" font-size="18" font-weight="700" text-anchor="middle">STATE 04</text><text x="927" y="626" fill="#b4b2aa" font-family="Arial" font-size="14" font-weight="400" text-anchor="middle">156.2 cm high</text><text x="927" y="649" fill="#b4b2aa" font-family="Arial" font-size="14" font-weight="400" text-anchor="middle">22.5 cm max envelope</text><line x1="1185" y1="125" x2="1185" y2="568" stroke="#414642" stroke-width="1" stroke-dasharray="5 5"/><path d="M1111.1,562.3 L1115.4,557.0 L1115.5,551.7 L1112.4,546.4 L1110.7,541.1 L1115.1,535.8 L1115.4,530.5 L1112.2,525.2 L1110.4,519.8 L1113.5,514.5 L1116.4,509.2 L1112.1,503.9 L1110.4,498.6 L1113.5,493.3 L1116.4,488.0 L1113.8,482.7 L1110.6,477.3 L1113.7,472.0 L1116.6,466.7 L1114.3,461.4 L1111.1,456.1 L1114.3,450.8 L1117.2,445.5 L1115.0,440.2 L1111.9,434.8 L1113.6,429.5 L1118.2,424.2 L1116.2,418.9 L1113.2,413.6 L1115.0,408.3 L1119.7,403.0 L1117.9,397.7 L1115.1,392.3 L1116.9,387.0 L1120.2,381.7 L1121.4,376.4 L1117.5,371.1 L1119.4,365.8 L1122.8,360.5 L1124.2,355.2 L1120.7,349.8 L1120.5,344.5 L1126.0,339.2 L1127.5,333.9 L1125.2,328.6 L1123.9,323.3 L1129.4,318.0 L1130.8,312.7 L1128.5,307.3 L1127.2,302.0 L1130.8,296.7 L1134.8,291.4 L1131.3,286.1 L1129.9,280.8 L1133.4,275.5 L1137.1,270.2 L1133.4,264.8 L1132.0,259.5 L1135.3,254.2 L1138.4,248.9 L1136.3,243.6 L1133.4,238.3 L1136.7,233.0 L1139.6,227.7 L1137.3,222.3 L1134.3,217.0 L1135.9,211.7 L1140.4,206.4 L1137.9,201.1 L1134.8,195.8 L1136.4,190.5 L1140.7,185.2 L1138.1,179.8 L1134.9,174.5 L1136.5,169.2 L1139.3,163.9 L1139.4,158.6 L1134.8,153.3 L1136.3,148.0 L1139.1,142.7 L1230.9,142.7 L1233.7,148.0 L1235.2,153.3 L1230.6,158.6 L1230.7,163.9 L1233.5,169.2 L1235.1,174.5 L1231.9,179.8 L1229.3,185.2 L1233.6,190.5 L1235.2,195.8 L1232.1,201.1 L1229.6,206.4 L1234.1,211.7 L1235.7,217.0 L1232.7,222.3 L1230.4,227.7 L1233.3,233.0 L1236.6,238.3 L1233.7,243.6 L1231.6,248.9 L1234.7,254.2 L1238.0,259.5 L1236.6,264.8 L1232.9,270.2 L1236.6,275.5 L1240.1,280.8 L1238.7,286.1 L1235.2,291.4 L1239.2,296.7 L1242.8,302.0 L1241.5,307.3 L1239.2,312.7 L1240.6,318.0 L1246.1,323.3 L1244.8,328.6 L1242.5,333.9 L1244.0,339.2 L1249.5,344.5 L1249.3,349.8 L1245.8,355.2 L1247.2,360.5 L1250.6,365.8 L1252.5,371.1 L1248.6,376.4 L1249.8,381.7 L1253.1,387.0 L1254.9,392.3 L1252.1,397.7 L1250.3,403.0 L1255.0,408.3 L1256.8,413.6 L1253.8,418.9 L1251.8,424.2 L1256.4,429.5 L1258.1,434.8 L1255.0,440.2 L1252.8,445.5 L1255.7,450.8 L1258.9,456.1 L1255.7,461.4 L1253.4,466.7 L1256.3,472.0 L1259.4,477.3 L1256.2,482.7 L1253.6,488.0 L1256.5,493.3 L1259.6,498.6 L1257.9,503.9 L1253.6,509.2 L1256.5,514.5 L1259.6,519.8 L1257.8,525.2 L1254.6,530.5 L1254.9,535.8 L1259.3,541.1 L1257.6,546.4 L1254.5,551.7 L1254.6,557.0 L1258.9,562.3 Z" fill="#343c3d" stroke="#b7c0bf" stroke-width="2"/><text x="1185" y="601" fill="#e8e4dc" font-family="Arial" font-size="18" font-weight="700" text-anchor="middle">STATE 05</text><text x="1185" y="626" fill="#b4b2aa" font-family="Arial" font-size="14" font-weight="400" text-anchor="middle">156.2 cm high</text><text x="1185" y="649" fill="#b4b2aa" font-family="Arial" font-size="14" font-weight="400" text-anchor="middle">21.0 cm max envelope</text></svg>