  0
SECTION
  2
HEADER
  9
$ACADVER
  1
AC1027
  9
$ACADMAINTVER
 70
105
  9
$DWGCODEPAGE
  3
ANSI_1252
  9
$LASTSAVEDBY
  1
ezdxf
  9
$REQUIREDVERSIONS
160
0
  9
$INSBASE
 10
0.0
 20
0.0
 30
0.0
  9
$EXTMIN
 10
1e+20
 20
1e+20
 30
1e+20
  9
$EXTMAX
 10
-1e+20
 20
-1e+20
 30
-1e+20
  9
$LIMMIN
 10
0.0
 20
0.0
  9
$LIMMAX
 10
420.0
 20
297.0
  9
$ORTHOMODE
 70
0
  9
$REGENMODE
 70
1
  9
$FILLMODE
 70
1
  9
$QTEXTMODE
 70
0
  9
$MIRRTEXT
 70
1
  9
$LTSCALE
 40
1.0
  9
$ATTMODE
 70
1
  9
$TEXTSIZE
 40
2.5
  9
$TRACEWID
 40
1.0
  9
$TEXTSTYLE
  7
Standard
  9
$CLAYER
  8
0
  9
$CELTYPE
  6
ByLayer
  9
$CECOLOR
 62
256
  9
$CELTSCALE
 40
1.0
  9
$DISPSILH
 70
0
  9
$DIMSCALE
 40
1.0
  9
$DIMASZ
 40
2.5
  9
$DIMEXO
 40
0.625
  9
$DIMDLI
 40
3.75
  9
$DIMRND
 40
0.0
  9
$DIMDLE
 40
0.0
  9
$DIMEXE
 40
1.25
  9
$DIMTP
 40
0.0
  9
$DIMTM
 40
0.0
  9
$DIMTXT
 40
2.5
  9
$DIMCEN
 40
2.5
  9
$DIMTSZ
 40
0.0
  9
$DIMTOL
 70
0
  9
$DIMLIM
 70
0
  9
$DIMTIH
 70
0
  9
$DIMTOH
 70
0
  9
$DIMSE1
 70
0
  9
$DIMSE2
 70
0
  9
$DIMTAD
 70
1
  9
$DIMZIN
 70
8
  9
$DIMBLK
  1

  9
$DIMASO
 70
1
  9
$DIMSHO
 70
1
  9
$DIMPOST
  1

  9
$DIMAPOST
  1

  9
$DIMALT
 70
0
  9
$DIMALTD
 70
3
  9
$DIMALTF
 40
0.03937007874
  9
$DIMLFAC
 40
1.0
  9
$DIMTOFL
 70
1
  9
$DIMTVP
 40
0.0
  9
$DIMTIX
 70
0
  9
$DIMSOXD
 70
0
  9
$DIMSAH
 70
0
  9
$DIMBLK1
  1

  9
$DIMBLK2
  1

  9
$DIMSTYLE
  2
ISO-25
  9
$DIMCLRD
 70
0
  9
$DIMCLRE
 70
0
  9
$DIMCLRT
 70
0
  9
$DIMTFAC
 40
1.0
  9
$DIMGAP
 40
0.625
  9
$DIMJUST
 70
0
  9
$DIMSD1
 70
0
  9
$DIMSD2
 70
0
  9
$DIMTOLJ
 70
0
  9
$DIMTZIN
 70
8
  9
$DIMALTZ
 70
0
  9
$DIMALTTZ
 70
0
  9
$DIMUPT
 70
0
  9
$DIMDEC
 70
2
  9
$DIMTDEC
 70
2
  9
$DIMALTU
 70
2
  9
$DIMALTTD
 70
3
  9
$DIMTXSTY
  7
Standard
  9
$DIMAUNIT
 70
0
  9
$DIMADEC
 70
0
  9
$DIMALTRND
 40
0.0
  9
$DIMAZIN
 70
0
  9
$DIMDSEP
 70
44
  9
$DIMATFIT
 70
3
  9
$DIMFRAC
 70
0
  9
$DIMLDRBLK
  1

  9
$DIMLUNIT
 70
2
  9
$DIMLWD
 70
-2
  9
$DIMLWE
 70
-2
  9
$DIMTMOVE
 70
0
  9
$DIMFXL
 40
1.0
  9
$DIMFXLON
 70
0
  9
$DIMJOGANG
 40
0.785398163397
  9
$DIMTFILL
 70
0
  9
$DIMTFILLCLR
 70
0
  9
$DIMARCSYM
 70
0
  9
$DIMLTYPE
  6

  9
$DIMLTEX1
  6

  9
$DIMLTEX2
  6

  9
$DIMTXTDIRECTION
 70
0
  9
$LUNITS
 70
2
  9
$LUPREC
 70
4
  9
$SKETCHINC
 40
1.0
  9
$FILLETRAD
 40
10.0
  9
$AUNITS
 70
0
  9
$AUPREC
 70
2
  9
$MENU
  1
.
  9
$ELEVATION
 40
0.0
  9
$PELEVATION
 40
0.0
  9
$THICKNESS
 40
0.0
  9
$LIMCHECK
 70
0
  9
$CHAMFERA
 40
0.0
  9
$CHAMFERB
 40
0.0
  9
$CHAMFERC
 40
0.0
  9
$CHAMFERD
 40
0.0
  9
$SKPOLY
 70
0
  9
$TDCREATE
 40
2461303.8476504628
  9
$TDUCREATE
 40
2458532.153996898
  9
$TDUPDATE
 40
2461303.8476504628
  9
$TDUUPDATE
 40
2458532.1544311
  9
$TDINDWG
 40
0.0
  9
$TDUSRTIMER
 40
0.0
  9
$USRTIMER
 70
1
  9
$ANGBASE
 50
0.0
  9
$ANGDIR
 70
0
  9
$PDMODE
 70
0
  9
$PDSIZE
 40
0.0
  9
$PLINEWID
 40
0.0
  9
$SPLFRAME
 70
0
  9
$SPLINETYPE
 70
6
  9
$SPLINESEGS
 70
8
  9
$HANDSEED
  5
53
  9
$SURFTAB1
 70
6
  9
$SURFTAB2
 70
6
  9
$SURFTYPE
 70
6
  9
$SURFU
 70
6
  9
$SURFV
 70
6
  9
$UCSBASE
  2

  9
$UCSNAME
  2

  9
$UCSORG
 10
0.0
 20
0.0
 30
0.0
  9
$UCSXDIR
 10
1.0
 20
0.0
 30
0.0
  9
$UCSYDIR
 10
0.0
 20
1.0
 30
0.0
  9
$UCSORTHOREF
  2

  9
$UCSORTHOVIEW
 70
0
  9
$UCSORGTOP
 10
0.0
 20
0.0
 30
0.0
  9
$UCSORGBOTTOM
 10
0.0
 20
0.0
 30
0.0
  9
$UCSORGLEFT
 10
0.0
 20
0.0
 30
0.0
  9
$UCSORGRIGHT
 10
0.0
 20
0.0
 30
0.0
  9
$UCSORGFRONT
 10
0.0
 20
0.0
 30
0.0
  9
$UCSORGBACK
 10
0.0
 20
0.0
 30
0.0
  9
$PUCSBASE
  2

  9
$PUCSNAME
  2

  9
$PUCSORG
 10
0.0
 20
0.0
 30
0.0
  9
$PUCSXDIR
 10
1.0
 20
0.0
 30
0.0
  9
$PUCSYDIR
 10
0.0
 20
1.0
 30
0.0
  9
$PUCSORTHOREF
  2

  9
$PUCSORTHOVIEW
 70
0
  9
$PUCSORGTOP
 10
0.0
 20
0.0
 30
0.0
  9
$PUCSORGBOTTOM
 10
0.0
 20
0.0
 30
0.0
  9
$PUCSORGLEFT
 10
0.0
 20
0.0
 30
0.0
  9
$PUCSORGRIGHT
 10
0.0
 20
0.0
 30
0.0
  9
$PUCSORGFRONT
 10
0.0
 20
0.0
 30
0.0
  9
$PUCSORGBACK
 10
0.0
 20
0.0
 30
0.0
  9
$USERI1
 70
0
  9
$USERI2
 70
0
  9
$USERI3
 70
0
  9
$USERI4
 70
0
  9
$USERI5
 70
0
  9
$USERR1
 40
0.0
  9
$USERR2
 40
0.0
  9
$USERR3
 40
0.0
  9
$USERR4
 40
0.0
  9
$USERR5
 40
0.0
  9
$WORLDVIEW
 70
1
  9
$SHADEDGE
 70
3
  9
$SHADEDIF
 70
70
  9
$TILEMODE
 70
1
  9
$MAXACTVP
 70
64
  9
$PINSBASE
 10
0.0
 20
0.0
 30
0.0
  9
$PLIMCHECK
 70
0
  9
$PEXTMIN
 10
1e+20
 20
1e+20
 30
1e+20
  9
$PEXTMAX
 10
-1e+20
 20
-1e+20
 30
-1e+20
  9
$PLIMMIN
 10
0.0
 20
0.0
  9
$PLIMMAX
 10
420.0
 20
297.0
  9
$UNITMODE
 70
0
  9
$VISRETAIN
 70
1
  9
$PLINEGEN
 70
0
  9
$PSLTSCALE
 70
1
  9
$TREEDEPTH
 70
3020
  9
$CMLSTYLE
  2
Standard
  9
$CMLJUST
 70
0
  9
$CMLSCALE
 40
20.0
  9
$PROXYGRAPHICS
 70
1
  9
$MEASUREMENT
 70
1
  9
$CELWEIGHT
370
-1
  9
$ENDCAPS
280
0
  9
$JOINSTYLE
280
0
  9
$LWDISPLAY
290
0
  9
$INSUNITS
 70
4
  9
$HYPERLINKBASE
  1

  9
$STYLESHEET
  1

  9
$XEDIT
290
1
  9
$CEPSNTYPE
380
0
  9
$PSTYLEMODE
290
1
  9
$FINGERPRINTGUID
  2
{D84429A7-8A32-4B26-8D5C-98306FC063C4}
  9
$VERSIONGUID
  2
{813B9053-FE55-4977-B571-421952F84500}
  9
$EXTNAMES
290
1
  9
$PSVPSCALE
 40
0.0
  9
$OLESTARTUP
290
0
  9
$SORTENTS
280
127
  9
$INDEXCTL
280
0
  9
$HIDETEXT
280
1
  9
$XCLIPFRAME
280
1
  9
$HALOGAP
280
0
  9
$OBSCOLOR
 70
257
  9
$OBSLTYPE
280
0
  9
$INTERSECTIONDISPLAY
280
0
  9
$INTERSECTIONCOLOR
 70
257
  9
$DIMASSOC
280
2
  9
$PROJECTNAME
  1

  9
$CAMERADISPLAY
290
0
  9
$LENSLENGTH
 40
50.0
  9
$CAMERAHEIGHT
 40
0.0
  9
$STEPSPERSEC
 40
24.0
  9
$STEPSIZE
 40
100.0
  9
$3DDWFPREC
 40
2.0
  9
$PSOLWIDTH
 40
0.005
  9
$PSOLHEIGHT
 40
0.08
  9
$LOFTANG1
 40
1.570796326795
  9
$LOFTANG2
 40
1.570796326795
  9
$LOFTMAG1
 40
0.0
  9
$LOFTMAG2
 40
0.0
  9
$LOFTPARAM
 70
7
  9
$LOFTNORMALS
280
1
  9
$LATITUDE
 40
37.795
  9
$LONGITUDE
 40
-122.394
  9
$NORTHDIRECTION
 40
0.0
  9
$TIMEZONE
 70
-8000
  9
$LIGHTGLYPHDISPLAY
280
1
  9
$TILEMODELIGHTSYNCH
280
1
  9
$CMATERIAL
347
20
  9
$SOLIDHIST
280
0
  9
$SHOWHIST
280
1
  9
$DWFFRAME
280
2
  9
$DGNFRAME
280
2
  9
$REALWORLDSCALE
290
1
  9
$INTERFERECOLOR
 62
256
  9
$CSHADOW
280
0
  9
$SHADOWPLANELOCATION
 40
0.0
  0
ENDSEC
  0
SECTION
  2
CLASSES
  0
CLASS
  1
ACDBDICTIONARYWDFLT
  2
AcDbDictionaryWithDefault
  3
ObjectDBX Classes
 90
0
 91
0
280
0
281
0
  0
CLASS
  1
SUN
  2
AcDbSun
  3
SCENEOE
 90
1153
 91
0
280
0
281
0
  0
CLASS
  1
VISUALSTYLE
  2
AcDbVisualStyle
  3
ObjectDBX Classes
 90
4095
 91
0
280
0
281
0
  0
CLASS
  1
MATERIAL
  2
AcDbMaterial
  3
ObjectDBX Classes
 90
1153
 91
0
280
0
281
0
  0
CLASS
  1
SCALE
  2
AcDbScale
  3
ObjectDBX Classes
 90
1153
 91
0
280
0
281
0
  0
CLASS
  1
TABLESTYLE
  2
AcDbTableStyle
  3
ObjectDBX Classes
 90
4095
 91
0
280
0
281
0
  0
CLASS
  1
MLEADERSTYLE
  2
AcDbMLeaderStyle
  3
ACDB_MLEADERSTYLE_CLASS
 90
4095
 91
0
280
0
281
0
  0
CLASS
  1
DICTIONARYVAR
  2
AcDbDictionaryVar
  3
ObjectDBX Classes
 90
0
 91
0
280
0
281
0
  0
CLASS
  1
CELLSTYLEMAP
  2
AcDbCellStyleMap
  3
ObjectDBX Classes
 90
1152
 91
0
280
0
281
0
  0
CLASS
  1
MENTALRAYRENDERSETTINGS
  2
AcDbMentalRayRenderSettings
  3
SCENEOE
 90
1024
 91
0
280
0
281
0
  0
CLASS
  1
ACDBDETAILVIEWSTYLE
  2
AcDbDetailViewStyle
  3
ObjectDBX Classes
 90
1025
 91
0
280
0
281
0
  0
CLASS
  1
ACDBSECTIONVIEWSTYLE
  2
AcDbSectionViewStyle
  3
ObjectDBX Classes
 90
1025
 91
0
280
0
281
0
  0
CLASS
  1
RASTERVARIABLES
  2
AcDbRasterVariables
  3
ISM
 90
0
 91
0
280
0
281
0
  0
CLASS
  1
ACDBPLACEHOLDER
  2
AcDbPlaceHolder
  3
ObjectDBX Classes
 90
0
 91
0
280
0
281
0
  0
CLASS
  1
LAYOUT
  2
AcDbLayout
  3
ObjectDBX Classes
 90
0
 91
0
280
0
281
0
  0
ENDSEC
  0
SECTION
  2
TABLES
  0
TABLE
  2
VPORT
  5
8
330
0
100
AcDbSymbolTable
 70
1
  0
VPORT
  5
23
330
8
100
AcDbSymbolTableRecord
100
AcDbViewportTableRecord
  2
*Active
 70
0
 10
0.0
 20
0.0
 11
1.0
 21
1.0
 12
0.0
 22
0.0
 13
0.0
 23
0.0
 14
0.5
 24
0.5
 15
0.5
 25
0.5
 16
0.0
 26
0.0
 36
1.0
 17
0.0
 27
0.0
 37
0.0
 40
1000.0
 41
1.34
 42
50.0
 43
0.0
 44
0.0
 50
0.0
 51
0.0
 71
0
 72
1000
 73
1
 74
3
 75
0
 76
0
 77
0
 78
0
281
0
 65
0
146
0.0
  0
ENDTAB
  0
TABLE
  2
LTYPE
  5
2
330
0
100
AcDbSymbolTable
 70
3
  0
LTYPE
  5
24
330
2
100
AcDbSymbolTableRecord
100
AcDbLinetypeTableRecord
  2
ByBlock
 70
0
  3

 72
65
 73
0
 40
0.0
  0
LTYPE
  5
25
330
2
100
AcDbSymbolTableRecord
100
AcDbLinetypeTableRecord
  2
ByLayer
 70
0
  3

 72
65
 73
0
 40
0.0
  0
LTYPE
  5
26
330
2
100
AcDbSymbolTableRecord
100
AcDbLinetypeTableRecord
  2
Continuous
 70
0
  3

 72
65
 73
0
 40
0.0
  0
ENDTAB
  0
TABLE
  2
LAYER
  5
1
330
0
100
AcDbSymbolTable
 70
5
  0
LAYER
  5
27
330
1
100
AcDbSymbolTableRecord
100
AcDbLayerTableRecord
  2
0
 70
0
 62
7
  6
Continuous
370
-3
390
13
347
21
  0
LAYER
  5
28
330
1
100
AcDbSymbolTableRecord
100
AcDbLayerTableRecord
  2
Defpoints
 70
0
 62
7
  6
Continuous
290
0
370
-3
390
13
347
21
  0
LAYER
  5
2F
330
1
100
AcDbSymbolTableRecord
100
AcDbLayerTableRecord
  2
SOURCE_CURVES
 70
0
 62
7
  6
Continuous
370
-3
390
13
347
21
  0
LAYER
  5
30
330
1
100
AcDbSymbolTableRecord
100
AcDbLayerTableRecord
  2
BREP_EDGE_PROJECTION
 70
0
 62
8
  6
Continuous
370
-3
390
13
347
21
  0
LAYER
  5
31
330
1
100
AcDbSymbolTableRecord
100
AcDbLayerTableRecord
  2
SOURCE_LABELS
 70
0
 62
5
  6
Continuous
370
-3
390
13
347
21
  0
ENDTAB
  0
TABLE
  2
STYLE
  5
5
330
0
100
AcDbSymbolTable
 70
1
  0
STYLE
  5
29
330
5
100
AcDbSymbolTableRecord
100
AcDbTextStyleTableRecord
  2
Standard
 70
0
 40
0.0
 41
1.0
 50
0.0
 71
0
 42
2.5
  3
txt
  4

  0
ENDTAB
  0
TABLE
  2
VIEW
  5
7
330
0
100
AcDbSymbolTable
 70
0
  0
ENDTAB
  0
TABLE
  2
UCS
  5
6
330
0
100
AcDbSymbolTable
 70
0
  0
ENDTAB
  0
TABLE
  2
APPID
  5
3
330
0
100
AcDbSymbolTable
 70
3
  0
APPID
  5
2A
330
3
100
AcDbSymbolTableRecord
100
AcDbRegAppTableRecord
  2
ACAD
 70
0
  0
APPID
  5
50
330
3
100
AcDbSymbolTableRecord
100
AcDbRegAppTableRecord
  2
HATCHBACKGROUNDCOLOR
 70
0
  0
APPID
  5
51
330
3
100
AcDbSymbolTableRecord
100
AcDbRegAppTableRecord
  2
EZDXF
 70
0
  0
ENDTAB
  0
TABLE
  2
DIMSTYLE
  5
4
330
0
100
AcDbSymbolTable
 70
1
100
AcDbDimStyleTable
  0
DIMSTYLE
105
2B
330
4
100
AcDbSymbolTableRecord
100
AcDbDimStyleTableRecord
  2
Standard
 70
0
 40
1.0
 41
2.5
 42
0.625
 43
3.75
 44
1.25
 45
0.0
 46
0.0
 47
0.0
 48
0.0
 49
2.5
140
2.5
141
2.5
142
0.0
143
0.03937007874
144
1.0
145
0.0
146
1.0
147
0.625
148
0.0
 69
0
 70
0
 71
0
 72
0
 73
0
 74
0
 75
0
 76
0
 77
1
 78
8
 79
3
170
0
171
3
172
1
173
0
174
0
175
0
176
0
177
0
178
0
179
2
271
2
272
2
273
2
274
3
275
0
276
0
277
2
278
44
279
0
280
0
281
0
282
0
283
0
284
8
285
0
286
0
288
0
289
3
290
0
371
-2
372
-2
  0
ENDTAB
  0
TABLE
  2
BLOCK_RECORD
  5
9
330
0
100
AcDbSymbolTable
 70
2
  0
BLOCK_RECORD
  5
17
330
9
100
AcDbSymbolTableRecord
100
AcDbBlockTableRecord
  2
*Model_Space
340
1A
 70
0
280
1
281
0
  0
BLOCK_RECORD
  5
1B
330
9
100
AcDbSymbolTableRecord
100
AcDbBlockTableRecord
  2
*Paper_Space
340
1E
 70
0
280
1
281
0
  0
ENDTAB
  0
ENDSEC
  0
SECTION
  2
BLOCKS
  0
BLOCK
  5
18
330
17
100
AcDbEntity
  8
0
100
AcDbBlockBegin
  2
*Model_Space
 70
0
 10
0.0
 20
0.0
 30
0.0
  3
*Model_Space
  1

  0
ENDBLK
  5
19
330
17
100
AcDbEntity
  8
0
100
AcDbBlockEnd
  0
BLOCK
  5
1C
330
1B
100
AcDbEntity
  8
0
100
AcDbBlockBegin
  2
*Paper_Space
 70
0
 10
0.0
 20
0.0
 30
0.0
  3
*Paper_Space
  1

  0
ENDBLK
  5
1D
330
1B
100
AcDbEntity
  8
0
100
AcDbBlockEnd
  0
ENDSEC
  0
SECTION
  2
ENTITIES
  0
LWPOLYLINE
  5
32
330
17
100
AcDbEntity
  8
SOURCE_CURVES
100
AcDbPolyline
 90
13
 70
0
 10
30194.98184970857
 20
-62951.67095453573
 10
29994.981849708565
 20
-62951.670954535744
 10
29994.981849708573
 20
-62931.670954535744
 10
30498.98184970859
 20
-62931.67095453569
 10
30498.981849708583
 20
-62951.670954535686
 10
30298.98184970857
 20
-62951.67095453573
 10
30298.981849708554
 20
-63101.67095453571
 10
30278.981849708558
 20
-63101.67095453574
 10
30278.981849708558
 20
-62951.670954535715
 10
30214.981849708536
 20
-62951.67095453573
 10
30214.981849708565
 20
-63101.67095453574
 10
30194.98184970859
 20
-63101.67095453574
 10
30194.98184970857
 20
-62951.67095453573
  0
LWPOLYLINE
  5
33
330
17
100
AcDbEntity
  8
SOURCE_CURVES
100
AcDbPolyline
 90
13
 70
0
 10
30298.981849708576
 20
-62889.670954535715
 10
30298.981849708583
 20
-62739.67095453571
 10
30278.981849708558
 20
-62739.67095453571
 10
30278.98184970858
 20
-62889.670954535715
 10
30214.981849708616
 20
-62889.670954535744
 10
30214.981849708594
 20
-62739.67095453574
 10
30194.981849708583
 20
-62739.67095453574
 10
30194.981849708576
 20
-62889.670954535744
 10
29994.981849708558
 20
-62889.670954535744
 10
29994.981849708558
 20
-62909.67095453573
 10
30498.98184970859
 20
-62909.67095453567
 10
30498.981849708573
 20
-62889.670954535686
 10
30298.981849708576
 20
-62889.670954535715
  0
LWPOLYLINE
  5
34
330
17
100
AcDbEntity
  8
SOURCE_CURVES
100
AcDbPolyline
 90
5
 70
0
 10
29957.694868692448
 20
-62719.64541802708
 10
30536.304061861672
 20
-62719.64541802708
 10
30536.304061861683
 20
-63121.696491044386
 10
29957.694868692437
 20
-63121.69649104438
 10
29957.694868692448
 20
-62719.64541802708
  0
LWPOLYLINE
  5
35
330
17
100
AcDbEntity
  8
SOURCE_CURVES
100
AcDbPolyline
 90
2
 70
0
 10
30536.304061861683
 20
-63121.696491044386
 10
29957.694868692437
 20
-63121.69649104438
  0
LWPOLYLINE
  5
36
330
17
100
AcDbEntity
  8
SOURCE_CURVES
100
AcDbPolyline
 90
2
 70
0
 10
30536.304061861672
 20
-62719.64541802708
 10
29957.694868692448
 20
-62719.64541802708
  0
LWPOLYLINE
  5
37
330
17
100
AcDbEntity
  8
SOURCE_CURVES
100
AcDbPolyline
 90
13
 70
0
 10
30657.37580357415
 20
-63619.863308740125
 10
30457.375803574145
 20
-63619.86330874014
 10
30457.375803574145
 20
-63599.86330874014
 10
30961.375803574163
 20
-63599.86330874008
 10
30961.375803574163
 20
-63619.86330874007
 10
30761.37580357415
 20
-63619.863308740125
 10
30761.375803574127
 20
-63769.863308740096
 10
30741.37580357413
 20
-63769.863308740125
 10
30741.375803574138
 20
-63619.863308740096
 10
30677.375803574116
 20
-63619.863308740125
 10
30677.375803574138
 20
-63769.863308740125
 10
30657.375803574163
 20
-63769.863308740125
 10
30657.37580357415
 20
-63619.863308740125
  0
LWPOLYLINE
  5
38
330
17
100
AcDbEntity
  8
SOURCE_CURVES
100
AcDbPolyline
 90
13
 70
0
 10
30761.37580357415
 20
-63557.86330874011
 10
30761.37580357415
 20
-63407.86330874009
 10
30741.375803574123
 20
-63407.8633087401
 10
30741.375803574152
 20
-63557.86330874011
 10
30677.375803574185
 20
-63557.863308740125
 10
30677.37580357416
 20
-63407.86330874012
 10
30657.37580357415
 20
-63407.86330874013
 10
30657.37580357415
 20
-63557.863308740125
 10
30457.37580357413
 20
-63557.86330874014
 10
30457.37580357413
 20
-63577.86330874012
 10
30961.375803574163
 20
-63577.86330874007
 10
30961.37580357414
 20
-63557.86330874008
 10
30761.37580357415
 20
-63557.86330874011
  0
LWPOLYLINE
  5
39
330
17
100
AcDbEntity
  8
SOURCE_CURVES
100
AcDbPolyline
 90
5
 70
0
 10
30420.088822558013
 20
-63387.837772231476
 10
30998.698015727237
 20
-63387.837772231476
 10
30998.698015727256
 20
-63789.88884524878
 10
30420.088822558006
 20
-63789.88884524878
 10
30420.088822558013
 20
-63387.837772231476
  0
LWPOLYLINE
  5
3A
330
17
100
AcDbEntity
  8
SOURCE_CURVES
100
AcDbPolyline
 90
2
 70
0
 10
30998.698015727256
 20
-63789.88884524878
 10
30420.088822558006
 20
-63789.88884524878
  0
LWPOLYLINE
  5
3B
330
17
100
AcDbEntity
  8
SOURCE_CURVES
100
AcDbPolyline
 90
2
 70
0
 10
30998.698015727237
 20
-63387.837772231476
 10
30420.088822558013
 20
-63387.837772231476
  0
LWPOLYLINE
  5
3C
330
17
100
AcDbEntity
  8
SOURCE_CURVES
100
AcDbPolyline
 90
13
 70
0
 10
31271.950846278723
 20
-63433.98497516751
 10
31421.950846278738
 20
-63433.98497516748
 10
31421.950846278745
 20
-63413.98497516749
 10
31271.950846278738
 20
-63413.98497516749
 10
31271.950846278738
 20
-63208.984975167485
 10
31421.950846278745
 20
-63208.984975167485
 10
31421.950846278738
 20
-63188.984975167485
 10
31271.950846278745
 20
-63188.9849751675
 10
31271.950846278753
 20
-62879.98497516749
 10
31251.950846278756
 20
-62879.9849751675
 10
31251.950846278727
 20
-63733.30674790898
 10
31271.950846278723
 20
-63733.30674790895
 10
31271.950846278723
 20
-63433.98497516751
  0
LWPOLYLINE
  5
3D
330
17
100
AcDbEntity
  8
SOURCE_CURVES
100
AcDbPolyline
 90
13
 70
0
 10
31209.95084627872
 20
-63433.98497516748
 10
31209.950846278713
 20
-63733.30674790898
 10
31229.950846278738
 20
-63733.30674790898
 10
31229.95084627875
 20
-62879.98497516748
 10
31209.95084627874
 20
-62879.98497516748
 10
31209.95084627875
 20
-63188.98497516747
 10
31059.950846278734
 20
-63188.98497516747
 10
31059.95084627875
 20
-63208.984975167456
 10
31209.95084627874
 20
-63208.984975167514
 10
31209.950846278727
 20
-63413.98497516746
 10
31059.950846278734
 20
-63413.98497516746
 10
31059.95084627872
 20
-63433.98497516748
 10
31209.95084627872
 20
-63433.98497516748
  0
LWPOLYLINE
  5
3E
330
17
100
AcDbEntity
  8
SOURCE_CURVES
100
AcDbPolyline
 90
5
 70
0
 10
31441.976382787376
 20
-63781.98497516749
 10
31039.92530977008
 20
-63781.98497516749
 10
31039.925309770108
 20
-62781.98497516749
 10
31441.976382787405
 20
-62781.98497516749
 10
31441.976382787376
 20
-63781.98497516749
  0
LWPOLYLINE
  5
3F
330
17
100
AcDbEntity
  8
SOURCE_CURVES
100
AcDbPolyline
 90
13
 70
0
 10
31703.845327994848
 20
-63430.4182368727
 10
31853.845327994863
 20
-63430.41823687267
 10
31853.84532799487
 20
-63410.41823687268
 10
31703.845327994863
 20
-63410.41823687268
 10
31703.84532799487
 20
-63205.41823687269
 10
31853.845327994877
 20
-63205.418236872705
 10
31853.845327994863
 20
-63185.41823687269
 10
31703.84532799487
 20
-63185.41823687269
 10
31703.845327994877
 20
-62876.4182368727
 10
31683.845327994888
 20
-62876.4182368727
 10
31683.845327994844
 20
-63729.74000961419
 10
31703.84532799484
 20
-63729.74000961418
 10
31703.845327994848
 20
-63430.4182368727
  0
LWPOLYLINE
  5
40
330
17
100
AcDbEntity
  8
SOURCE_CURVES
100
AcDbPolyline
 90
13
 70
0
 10
31641.845327994844
 20
-63430.41823687268
 10
31641.84532799483
 20
-63729.74000961419
 10
31661.845327994855
 20
-63729.74000961419
 10
31661.845327994874
 20
-62876.4182368727
 10
31641.845327994874
 20
-62876.4182368727
 10
31641.845327994874
 20
-63185.41823687269
 10
31491.84532799486
 20
-63185.41823687266
 10
31491.84532799488
 20
-63205.41823687265
 10
31641.845327994866
 20
-63205.418236872705
 10
31641.845327994844
 20
-63410.418236872676
 10
31491.84532799486
 20
-63410.41823687266
 10
31491.845327994844
 20
-63430.41823687267
 10
31641.845327994844
 20
-63430.41823687268
  0
LWPOLYLINE
  5
41
330
17
100
AcDbEntity
  8
SOURCE_CURVES
100
AcDbPolyline
 90
5
 70
0
 10
31873.8708645035
 20
-63778.4182368727
 10
31471.819791486196
 20
-63778.41823687268
 10
31471.81979148624
 20
-62778.41823687268
 10
31873.87086450353
 20
-62778.41823687271
 10
31873.8708645035
 20
-63778.4182368727
  0
LWPOLYLINE
  5
42
330
17
100
AcDbEntity
  8
SOURCE_CURVES
100
AcDbPolyline
 90
5
 70
0
 10
31918.916618082312
 20
-62787.349678103965
 10
32320.96769109961
 20
-62787.349678103965
 10
32320.96769109961
 20
-63787.34967810395
 10
31918.916618082312
 20
-63787.34967810395
 10
31918.916618082312
 20
-62787.349678103965
  0
LWPOLYLINE
  5
43
330
17
100
AcDbEntity
  8
SOURCE_CURVES
100
AcDbPolyline
 90
13
 70
0
 10
32150.94215459098
 20
-63135.349678103965
 10
32150.94215459098
 20
-62836.027905362454
 10
32130.94215459096
 20
-62836.027905362454
 10
32130.942154590975
 20
-63689.34967810395
 10
32150.94215459098
 20
-63689.34967810395
 10
32150.942154590964
 20
-63380.34967810396
 10
32300.94215459098
 20
-63380.349678103965
 10
32300.942154590964
 20
-63360.34967810399
 10
32150.94215459097
 20
-63360.34967810394
 10
32150.94215459098
 20
-63155.34967810397
 10
32300.94215459097
 20
-63155.34967810397
 10
32300.94215459098
 20
-63135.349678103965
 10
32150.94215459098
 20
-63135.349678103965
  0
LWPOLYLINE
  5
44
330
17
100
AcDbEntity
  8
SOURCE_CURVES
100
AcDbPolyline
 90
13
 70
0
 10
32088.942154590983
 20
-63135.34967810395
 10
31938.942154590968
 20
-63135.34967810398
 10
31938.942154590957
 20
-63155.34967810396
 10
32088.942154590968
 20
-63155.34967810396
 10
32088.942154590975
 20
-63360.34967810396
 10
31938.942154590964
 20
-63360.34967810396
 10
31938.942154590975
 20
-63380.34967810396
 10
32088.942154590968
 20
-63380.34967810396
 10
32088.942154590975
 20
-63689.34967810395
 10
32108.942154590964
 20
-63689.34967810395
 10
32108.942154590964
 20
-62836.027905362454
 10
32088.942154590975
 20
-62836.02790536247
 10
32088.942154590983
 20
-63135.34967810395
  0
LWPOLYLINE
  5
45
330
17
100
AcDbEntity
  8
SOURCE_CURVES
100
AcDbPolyline
 90
13
 70
0
 10
30800.397532690044
 20
-63065.19855699976
 10
30800.39753269007
 20
-63265.19855699976
 10
30780.39753269008
 20
-63265.19855699976
 10
30780.39753269001
 20
-62761.19855699974
 10
30800.39753269
 20
-62761.19855699974
 10
30800.39753269004
 20
-62961.19855699976
 10
30950.397532690033
 20
-62961.19855699978
 10
30950.397532690047
 20
-62981.19855699977
 10
30800.397532690036
 20
-62981.19855699977
 10
30800.397532690055
 20
-63045.19855699979
 10
30950.39753269006
 20
-63045.19855699976
 10
30950.39753269006
 20
-63065.19855699975
 10
30800.397532690044
 20
-63065.19855699976
  0
LWPOLYLINE
  5
46
330
17
100
AcDbEntity
  8
SOURCE_CURVES
100
AcDbPolyline
 90
13
 70
0
 10
30738.39753269004
 20
-62961.19855699976
 10
30588.397532690025
 20
-62961.19855699976
 10
30588.397532690036
 20
-62981.198556999785
 10
30738.39753269003
 20
-62981.198556999756
 10
30738.397532690058
 20
-63045.19855699972
 10
30588.397532690047
 20
-63045.19855699975
 10
30588.39753269005
 20
-63065.19855699976
 10
30738.397532690058
 20
-63065.19855699976
 10
30738.397532690073
 20
-63265.19855699978
 10
30758.39753269006
 20
-63265.19855699978
 10
30758.39753268998
 20
-62761.19855699974
 10
30738.397532690004
 20
-62761.19855699977
 10
30738.39753269004
 20
-62961.19855699976
  0
LWPOLYLINE
  5
47
330
17
100
AcDbEntity
  8
SOURCE_CURVES
100
AcDbPolyline
 90
5
 70
0
 10
30568.37199618142
 20
-63302.4855380159
 10
30568.371996181402
 20
-62723.87634484667
 10
30970.423069198703
 20
-62723.87634484664
 10
30970.42306919871
 20
-63302.4855380159
 10
30568.37199618142
 20
-63302.4855380159
  0
LWPOLYLINE
  5
48
330
17
100
AcDbEntity
  8
SOURCE_CURVES
100
AcDbPolyline
 90
2
 70
0
 10
30970.423069198703
 20
-62723.87634484664
 10
30970.42306919871
 20
-63302.4855380159
  0
LWPOLYLINE
  5
49
330
17
100
AcDbEntity
  8
SOURCE_CURVES
100
AcDbPolyline
 90
2
 70
0
 10
30568.371996181402
 20
-62723.87634484667
 10
30568.37199618142
 20
-63302.4855380159
  0
LWPOLYLINE
  5
4A
330
17
100
AcDbEntity
  8
SOURCE_CURVES
100
AcDbPolyline
 90
2
 70
0
 10
29965.2169597724
 20
-63248.98946609608
 10
29965.216959772417
 20
-63827.59865926529
  0
LWPOLYLINE
  5
4B
330
17
100
AcDbEntity
  8
SOURCE_CURVES
100
AcDbPolyline
 90
2
 70
0
 10
30367.268032789696
 20
-63248.98946609605
 10
30367.268032789707
 20
-63827.59865926529
  0
LWPOLYLINE
  5
4C
330
17
100
AcDbEntity
  8
SOURCE_CURVES
100
AcDbPolyline
 90
5
 70
0
 10
29965.216959772417
 20
-63827.59865926529
 10
29965.2169597724
 20
-63248.98946609608
 10
30367.268032789696
 20
-63248.98946609605
 10
30367.268032789707
 20
-63827.59865926529
 10
29965.216959772417
 20
-63827.59865926529
  0
LWPOLYLINE
  5
4D
330
17
100
AcDbEntity
  8
SOURCE_CURVES
100
AcDbPolyline
 90
13
 70
0
 10
30135.242496281036
 20
-63486.31167824916
 10
29985.24249628102
 20
-63486.31167824916
 10
29985.242496281033
 20
-63506.31167824918
 10
30135.242496281026
 20
-63506.31167824915
 10
30135.24249628105
 20
-63570.31167824911
 10
29985.242496281047
 20
-63570.31167824914
 10
29985.24249628105
 20
-63590.31167824915
 10
30135.24249628105
 20
-63590.31167824915
 10
30135.242496281066
 20
-63790.31167824917
 10
30155.242496281055
 20
-63790.31167824917
 10
30155.242496280982
 20
-63286.31167824915
 10
30135.242496281004
 20
-63286.31167824916
 10
30135.242496281036
 20
-63486.31167824916
  0
LWPOLYLINE
  5
4E
330
17
100
AcDbEntity
  8
SOURCE_CURVES
100
AcDbPolyline
 90
13
 70
0
 10
30197.242496281044
 20
-63590.31167824915
 10
30197.242496281062
 20
-63790.31167824917
 10
30177.242496281076
 20
-63790.31167824917
 10
30177.242496281004
 20
-63286.31167824915
 10
30197.242496280993
 20
-63286.31167824915
 10
30197.24249628104
 20
-63486.31167824916
 10
30347.24249628103
 20
-63486.31167824916
 10
30347.242496281044
 20
-63506.31167824918
 10
30197.24249628103
 20
-63506.31167824918
 10
30197.24249628105
 20
-63570.3116782492
 10
30347.24249628106
 20
-63570.31167824917
 10
30347.242496281055
 20
-63590.311678249134
 10
30197.242496281044
 20
-63590.31167824915
  0
LWPOLYLINE
  5
4F
330
17
100
AcDbEntity
  8
SOURCE_CURVES
100
AcDbPolyline
 90
5
 70
0
 10
29924.48547773328
 20
-62650.5559195277
 10
29924.48547773328
 20
-63870.5559195277
 10
32364.485477733277
 20
-63870.5559195277
 10
32364.485477733277
 20
-62650.5559195277
 10
29924.48547773328
 20
-62650.5559195277
  0
ENDSEC
  0
SECTION
  2
OBJECTS
  0
DICTIONARY
  5
A
330
0
100
AcDbDictionary
281
1
  3
ACAD_COLOR
350
B
  3
ACAD_GROUP
350
C
  3
ACAD_LAYOUT
350
D
  3
ACAD_MATERIAL
350
E
  3
ACAD_MLEADERSTYLE
350
F
  3
ACAD_MLINESTYLE
350
10
  3
ACAD_PLOTSETTINGS
350
11
  3
ACAD_PLOTSTYLENAME
350
12
  3
ACAD_SCALELIST
350
14
  3
ACAD_TABLESTYLE
350
15
  3
ACAD_VISUALSTYLE
350
16
  3
EZDXF_META
350
2D
  0
DICTIONARY
  5
B
330
A
100
AcDbDictionary
281
1
  0
DICTIONARY
  5
C
330
A
100
AcDbDictionary
281
1
  0
DICTIONARY
  5
D
330
A
100
AcDbDictionary
281
1
  3
Model
350
1A
  3
Layout1
350
1E
  0
DICTIONARY
  5
E
330
A
100
AcDbDictionary
281
1
  3
ByBlock
350
1F
  3
ByLayer
350
20
  3
Global
350
21
  0
DICTIONARY
  5
F
330
A
100
AcDbDictionary
281
1
  3
Standard
350
2C
  0
DICTIONARY
  5
10
330
A
100
AcDbDictionary
281
1
  3
Standard
350
22
  0
DICTIONARY
  5
11
330
A
100
AcDbDictionary
281
1
  0
ACDBDICTIONARYWDFLT
  5
12
330
A
100
AcDbDictionary
281
1
  3
Normal
350
13
100
AcDbDictionaryWithDefault
340
13
  0
ACDBPLACEHOLDER
  5
13
330
12
  0
DICTIONARY
  5
14
330
A
100
AcDbDictionary
281
1
  0
DICTIONARY
  5
15
330
A
100
AcDbDictionary
281
1
  0
DICTIONARY
  5
16
330
A
100
AcDbDictionary
281
1
  0
LAYOUT
  5
1A
330
D
100
AcDbPlotSettings
  1

  4
A3
  6

 40
7.5
 41
20.0
 42
7.5
 43
20.0
 44
420.0
 45
297.0
 46
0.0
 47
0.0
 48
0.0
 49
0.0
140
0.0
141
0.0
142
1.0
143
1.0
 70
1024
 72
1
 73
0
 74
5
  7

 75
16
 76
0
 77
2
 78
300
147
1.0
148
0.0
149
0.0
100
AcDbLayout
  1
Model
 70
1
 71
0
 10
0.0
 20
0.0
 11
420.0
 21
297.0
 12
0.0
 22
0.0
 32
0.0
 14
1e+20
 24
1e+20
 34
1e+20
 15
-1e+20
 25
-1e+20
 35
-1e+20
146
0.0
 13
0.0
 23
0.0
 33
0.0
 16
1.0
 26
0.0
 36
0.0
 17
0.0
 27
1.0
 37
0.0
 76
1
330
17
  0
LAYOUT
  5
1E
330
D
100
AcDbPlotSettings
  1

  4
A3
  6

 40
7.5
 41
20.0
 42
7.5
 43
20.0
 44
420.0
 45
297.0
 46
0.0
 47
0.0
 48
0.0
 49
0.0
140
0.0
141
0.0
142
1.0
143
1.0
 70
0
 72
1
 73
0
 74
5
  7

 75
16
 76
0
 77
2
 78
300
147
1.0
148
0.0
149
0.0
100
AcDbLayout
  1
Layout1
 70
1
 71
1
 10
0.0
 20
0.0
 11
420.0
 21
297.0
 12
0.0
 22
0.0
 32
0.0
 14
1e+20
 24
1e+20
 34
1e+20
 15
-1e+20
 25
-1e+20
 35
-1e+20
146
0.0
 13
0.0
 23
0.0
 33
0.0
 16
1.0
 26
0.0
 36
0.0
 17
0.0
 27
1.0
 37
0.0
 76
1
330
1B
  0
MATERIAL
  5
1F
102
{ACAD_REACTORS
330
E
102
}
330
E
100
AcDbMaterial
  1
ByBlock
  2

 70
0
 40
1.0
 71
1
 41
1.0
 91
-1023410177
 42
1.0
 72
1
  3

 73
1
 74
1
 75
1
 44
0.5
 73
0
 45
1.0
 46
1.0
 77
1
  4

 78
1
 79
1
170
1
 48
1.0
171
1
  6

172
1
173
1
174
1
140
1.0
141
1.0
175
1
  7

176
1
177
1
178
1
143
1.0
179
1
  8

270
1
271
1
272
1
145
1.0
146
1.0
273
1
  9

274
1
275
1
276
1
 42
1.0
 72
1
  3

 73
1
 74
1
 75
1
 94
63
  0
MATERIAL
  5
20
102
{ACAD_REACTORS
330
E
102
}
330
E
100
AcDbMaterial
  1
ByLayer
  2

 70
0
 40
1.0
 71
1
 41
1.0
 91
-1023410177
 42
1.0
 72
1
  3

 73
1
 74
1
 75
1
 44
0.5
 73
0
 45
1.0
 46
1.0
 77
1
  4

 78
1
 79
1
170
1
 48
1.0
171
1
  6

172
1
173
1
174
1
140
1.0
141
1.0
175
1
  7

176
1
177
1
178
1
143
1.0
179
1
  8

270
1
271
1
272
1
145
1.0
146
1.0
273
1
  9

274
1
275
1
276
1
 42
1.0
 72
1
  3

 73
1
 74
1
 75
1
 94
63
  0
MATERIAL
  5
21
102
{ACAD_REACTORS
330
E
102
}
330
E
100
AcDbMaterial
  1
Global
  2

 70
0
 40
1.0
 71
1
 41
1.0
 91
-1023410177
 42
1.0
 72
1
  3

 73
1
 74
1
 75
1
 44
0.5
 73
0
 45
1.0
 46
1.0
 77
1
  4

 78
1
 79
1
170
1
 48
1.0
171
1
  6

172
1
173
1
174
1
140
1.0
141
1.0
175
1
  7

176
1
177
1
178
1
143
1.0
179
1
  8

270
1
271
1
272
1
145
1.0
146
1.0
273
1
  9

274
1
275
1
276
1
 42
1.0
 72
1
  3

 73
1
 74
1
 75
1
 94
63
  0
MLINESTYLE
  5
22
102
{ACAD_REACTORS
330
10
102
}
330
10
100
AcDbMlineStyle
  2
Standard
 70
0
  3

 62
256
 51
90.0
 52
90.0
 71
2
 49
0.5
 62
256
  6
BYLAYER
 49
-0.5
 62
256
  6
BYLAYER
  0
MLEADERSTYLE
  5
2C
102
{ACAD_REACTORS
330
F
102
}
330
F
100
AcDbMLeaderStyle
179
2
170
2
171
1
172
0
 90
2
 40
0.0
 41
0.0
173
1
 91
-1056964608
 92
-2
290
1
 42
2.0
291
1
 43
8.0
  3
Standard
 44
4.0
300

342
29
174
1
175
1
176
0
178
1
 93
-1056964608
 45
4.0
292
0
297
0
 46
4.0
 94
-1056964608
 47
1.0
 49
1.0
140
1.0
294
1
141
0.0
177
0
142
1.0
295
0
296
0
143
3.75
271
0
272
9
273
9
  0
DICTIONARY
  5
2D
330
A
100
AcDbDictionary
280
1
281
1
  3
CREATED_BY_EZDXF
350
2E
  3
WRITTEN_BY_EZDXF
350
52
  0
DICTIONARYVAR
  5
2E
330
2D
100
DictionaryVariables
280
0
  1
1.4.4 @ 2026-09-19T20:20:37.695626+00:00
  0
DICTIONARYVAR
  5
52
330
2D
100
DictionaryVariables
280
0
  1
1.4.4 @ 2026-09-19T20:20:37.697641+00:00
  0
ENDSEC
  0
EOF
