<svg xmlns="http://www.w3.org/2000/svg" viewBox="0 0 1200 900" role="img" aria-label="Abstract source document with one retrieved passage and two checked branches"><rect width="1200" height="900" fill="#0b0b0a"/><path d="M327 74H788L871 157V814H327Z" fill="#171817" stroke="#a8a59d" stroke-width="2"/><path d="M788 74V157H871" fill="none" stroke="#a8a59d" stroke-width="2"/><path d="M370 198h410" stroke="#b9b8b3" stroke-opacity="0.52" stroke-width="5"/><path d="M370 229h363" stroke="#b9b8b3" stroke-opacity="0.36" stroke-width="5"/><path d="M370 260h425" stroke="#b9b8b3" stroke-opacity="0.36" stroke-width="5"/><path d="M370 291h345" stroke="#b9b8b3" stroke-opacity="0.52" stroke-width="5"/><path d="M370 322h398" stroke="#b9b8b3" stroke-opacity="0.36" stroke-width="5"/><path d="M370 353h308" stroke="#b9b8b3" stroke-opacity="0.36" stroke-width="5"/><path d="M370 384h431" stroke="#b9b8b3" stroke-opacity="0.52" stroke-width="5"/><path d="M370 415h376" stroke="#b9b8b3" stroke-opacity="0.36" stroke-width="5"/><path d="M370 539h395" stroke="#b9b8b3" stroke-opacity="0.36" stroke-width="5"/><path d="M370 570h372" stroke="#b9b8b3" stroke-opacity="0.52" stroke-width="5"/><path d="M370 601h426" stroke="#b9b8b3" stroke-opacity="0.36" stroke-width="5"/><path d="M370 632h340" stroke="#b9b8b3" stroke-opacity="0.36" stroke-width="5"/><path d="M370 663h402" stroke="#b9b8b3" stroke-opacity="0.52" stroke-width="5"/><path d="M370 694h315" stroke="#b9b8b3" stroke-opacity="0.36" stroke-width="5"/><path d="M370 725h370" stroke="#b9b8b3" stroke-opacity="0.36" stroke-width="5"/><rect x="350" y="424" width="469" height="119" fill="#233047" fill-opacity=".28" stroke="#7898c7" stroke-width="3"/><path d="M373 452h407M373 481h369M373 510h389" stroke="#d9d8d2" stroke-width="5" opacity=".8"/><path d="M119 472H301M871 481h142" fill="none" stroke="#7898c7" stroke-width="3"/><circle cx="116" cy="472" r="13" fill="none" stroke="#e4e0d7" stroke-width="3"/><circle cx="1060" cy="424" r="14" fill="#7898c7"/><circle cx="1060" cy="480" r="14" fill="#7898c7"/><circle cx="1060" cy="536" r="14" fill="none" stroke="#77736c" stroke-width="3"/><path d="M1013 481h19V424h14M1032 481v55h14" fill="none" stroke="#7898c7" stroke-width="3"/></svg>