<svg xmlns="http://www.w3.org/2000/svg" viewBox="0 0 900 245" role="img" aria-label="R06-H03 member and source circle pattern"><rect x="0" y="0" width="900" height="245" fill="#171715"/><rect x="25" y="31" width="850" height="63" fill="#e7e2d8"/><circle cx="50.000" cy="48" r="1.7" fill="#171715"/><circle cx="58.000" cy="48" r="1.7" fill="#171715"/><circle cx="66.000" cy="48" r="1.7" fill="#171715"/><circle cx="74.000" cy="48" r="1.7" fill="#171715"/><circle cx="82.000" cy="48" r="1.7" fill="#171715"/><circle cx="90.000" cy="48" r="1.7" fill="#171715"/><circle cx="98.000" cy="48" r="1.7" fill="#171715"/><circle cx="106.000" cy="48" r="1.7" fill="#171715"/><circle cx="114.000" cy="48" r="1.7" fill="#171715"/><circle cx="122.000" cy="48" r="1.7" fill="#171715"/><circle cx="130.000" cy="48" r="1.7" fill="#171715"/><circle cx="138.000" cy="48" r="1.7" fill="#171715"/><circle cx="146.000" cy="48" r="1.7" fill="#171715"/><circle cx="154.000" cy="48" r="1.7" fill="#171715"/><circle cx="162.000" cy="48" r="1.7" fill="#171715"/><circle cx="170.000" cy="48" r="1.7" fill="#171715"/><circle cx="178.000" cy="48" r="1.7" fill="#171715"/><circle cx="186.000" cy="48" r="1.7" fill="#171715"/><circle cx="194.000" cy="48" r="1.7" fill="#171715"/><circle cx="202.000" cy="48" r="1.7" fill="#171715"/><circle cx="210.000" cy="48" r="1.7" fill="#171715"/><circle cx="218.000" cy="48" r="1.7" fill="#171715"/><circle cx="226.000" cy="48" r="1.7" fill="#171715"/><circle cx="234.000" cy="48" r="1.7" fill="#171715"/><circle cx="242.000" cy="48" r="1.7" fill="#171715"/><circle cx="250.000" cy="48" r="1.7" fill="#171715"/><circle cx="258.000" cy="48" r="1.7" fill="#171715"/><circle cx="266.000" cy="48" r="1.7" fill="#171715"/><circle cx="274.000" cy="48" r="1.7" fill="#171715"/><circle cx="282.000" cy="48" r="1.7" fill="#171715"/><circle cx="290.000" cy="48" r="1.7" fill="#171715"/><circle cx="298.000" cy="48" r="1.7" fill="#171715"/><circle cx="306.000" cy="48" r="1.7" fill="#171715"/><circle cx="314.000" cy="48" r="1.7" fill="#171715"/><circle cx="322.000" cy="48" r="1.7" fill="#171715"/><circle cx="330.000" cy="48" r="1.7" fill="#171715"/><circle cx="338.000" cy="48" r="1.7" fill="#171715"/><circle cx="346.000" cy="48" r="1.7" fill="#171715"/><circle cx="354.000" cy="48" r="1.7" fill="#171715"/><circle cx="362.000" cy="48" r="1.7" fill="#171715"/><circle cx="370.000" cy="48" r="1.7" fill="#171715"/><circle cx="378.000" cy="48" r="1.7" fill="#171715"/><circle cx="386.000" cy="48" r="1.7" fill="#171715"/><circle cx="394.000" cy="48" r="1.7" fill="#171715"/><circle cx="402.000" cy="48" r="1.7" fill="#171715"/><circle cx="410.000" cy="48" r="1.7" fill="#171715"/><circle cx="418.000" cy="48" r="1.7" fill="#171715"/><circle cx="426.000" cy="48" r="1.7" fill="#171715"/><circle cx="434.000" cy="48" r="1.7" fill="#171715"/><circle cx="442.000" cy="48" r="1.7" fill="#171715"/><circle cx="450.000" cy="48" r="1.7" fill="#171715"/><circle cx="458.000" cy="48" r="1.7" fill="#171715"/><circle cx="466.000" cy="48" r="1.7" fill="#171715"/><circle cx="474.000" cy="48" r="1.7" fill="#171715"/><circle cx="482.000" cy="48" r="1.7" fill="#171715"/><circle cx="490.000" cy="48" r="1.7" fill="#171715"/><circle cx="498.000" cy="48" r="1.7" fill="#171715"/><circle cx="506.000" cy="48" r="1.7" fill="#171715"/><circle cx="514.000" cy="48" r="1.7" fill="#171715"/><circle cx="522.000" cy="48" r="1.7" fill="#171715"/><circle cx="530.000" cy="48" r="1.7" fill="#171715"/><circle cx="538.000" cy="48" r="1.7" fill="#171715"/><circle cx="546.000" cy="48" r="1.7" fill="#171715"/><circle cx="554.000" cy="48" r="1.7" fill="#171715"/><circle cx="562.000" cy="48" r="1.7" fill="#171715"/><circle cx="570.000" cy="48" r="1.7" fill="#171715"/><circle cx="578.000" cy="48" r="1.7" fill="#171715"/><circle cx="586.000" cy="48" r="1.7" fill="#171715"/><circle cx="594.000" cy="48" r="1.7" fill="#171715"/><circle cx="602.000" cy="48" r="1.7" fill="#171715"/><circle cx="610.000" cy="48" r="1.7" fill="#171715"/><circle cx="618.000" cy="48" r="1.7" fill="#171715"/><circle cx="626.000" cy="48" r="1.7" fill="#171715"/><circle cx="634.000" cy="48" r="1.7" fill="#171715"/><circle cx="642.000" cy="48" r="1.7" fill="#171715"/><circle cx="650.000" cy="48" r="1.7" fill="#171715"/><circle cx="658.000" cy="48" r="1.7" fill="#171715"/><circle cx="666.000" cy="48" r="1.7" fill="#171715"/><circle cx="674.000" cy="48" r="1.7" fill="#171715"/><circle cx="682.000" cy="48" r="1.7" fill="#171715"/><circle cx="690.000" cy="48" r="1.7" fill="#171715"/><circle cx="698.000" cy="48" r="1.7" fill="#171715"/><circle cx="706.000" cy="48" r="1.7" fill="#171715"/><circle cx="714.000" cy="48" r="1.7" fill="#171715"/><circle cx="722.000" cy="48" r="1.7" fill="#171715"/><circle cx="730.000" cy="48" r="1.7" fill="#171715"/><circle cx="738.000" cy="48" r="1.7" fill="#171715"/><circle cx="746.000" cy="48" r="1.7" fill="#171715"/><circle cx="754.000" cy="48" r="1.7" fill="#171715"/><circle cx="762.000" cy="48" r="1.7" fill="#171715"/><circle cx="770.000" cy="48" r="1.7" fill="#171715"/><circle cx="778.000" cy="48" r="1.7" fill="#171715"/><circle cx="786.000" cy="48" r="1.7" fill="#171715"/><circle cx="794.000" cy="48" r="1.7" fill="#171715"/><circle cx="802.000" cy="48" r="1.7" fill="#171715"/><circle cx="810.000" cy="48" r="1.7" fill="#171715"/><circle cx="818.000" cy="48" r="1.7" fill="#171715"/><circle cx="826.000" cy="48" r="1.7" fill="#171715"/><circle cx="834.000" cy="48" r="1.7" fill="#171715"/><circle cx="842.000" cy="48" r="1.7" fill="#171715"/><circle cx="850.000" cy="48" r="1.7" fill="#171715"/><circle cx="50.000" cy="77" r="1.7" fill="#171715"/><circle cx="58.000" cy="77" r="1.7" fill="#171715"/><circle cx="66.000" cy="77" r="1.7" fill="#171715"/><circle cx="74.000" cy="77" r="1.7" fill="#171715"/><circle cx="82.000" cy="77" r="1.7" fill="#171715"/><circle cx="90.000" cy="77" r="1.7" fill="#171715"/><circle cx="98.000" cy="77" r="1.7" fill="#171715"/><circle cx="106.000" cy="77" r="1.7" fill="#171715"/><circle cx="114.000" cy="77" r="1.7" fill="#171715"/><circle cx="122.000" cy="77" r="1.7" fill="#171715"/><circle cx="130.000" cy="77" r="1.7" fill="#171715"/><circle cx="138.000" cy="77" r="1.7" fill="#171715"/><circle cx="146.000" cy="77" r="1.7" fill="#171715"/><circle cx="154.000" cy="77" r="1.7" fill="#171715"/><circle cx="162.000" cy="77" r="1.7" fill="#171715"/><circle cx="170.000" cy="77" r="1.7" fill="#171715"/><circle cx="178.000" cy="77" r="1.7" fill="#171715"/><circle cx="186.000" cy="77" r="1.7" fill="#171715"/><circle cx="194.000" cy="77" r="1.7" fill="#171715"/><circle cx="202.000" cy="77" r="1.7" fill="#171715"/><circle cx="210.000" cy="77" r="1.7" fill="#171715"/><circle cx="218.000" cy="77" r="1.7" fill="#171715"/><circle cx="226.000" cy="77" r="1.7" fill="#171715"/><circle cx="234.000" cy="77" r="1.7" fill="#171715"/><circle cx="242.000" cy="77" r="1.7" fill="#171715"/><circle cx="250.000" cy="77" r="1.7" fill="#171715"/><circle cx="258.000" cy="77" r="1.7" fill="#171715"/><circle cx="266.000" cy="77" r="1.7" fill="#171715"/><circle cx="274.000" cy="77" r="1.7" fill="#171715"/><circle cx="282.000" cy="77" r="1.7" fill="#171715"/><circle cx="290.000" cy="77" r="1.7" fill="#171715"/><circle cx="298.000" cy="77" r="1.7" fill="#171715"/><circle cx="306.000" cy="77" r="1.7" fill="#171715"/><circle cx="314.000" cy="77" r="1.7" fill="#171715"/><circle cx="322.000" cy="77" r="1.7" fill="#171715"/><circle cx="330.000" cy="77" r="1.7" fill="#171715"/><circle cx="338.000" cy="77" r="1.7" fill="#171715"/><circle cx="346.000" cy="77" r="1.7" fill="#171715"/><circle cx="354.000" cy="77" r="1.7" fill="#171715"/><circle cx="362.000" cy="77" r="1.7" fill="#171715"/><circle cx="370.000" cy="77" r="1.7" fill="#171715"/><circle cx="378.000" cy="77" r="1.7" fill="#171715"/><circle cx="386.000" cy="77" r="1.7" fill="#171715"/><circle cx="394.000" cy="77" r="1.7" fill="#171715"/><circle cx="402.000" cy="77" r="1.7" fill="#171715"/><circle cx="410.000" cy="77" r="1.7" fill="#171715"/><circle cx="418.000" cy="77" r="1.7" fill="#171715"/><circle cx="426.000" cy="77" r="1.7" fill="#171715"/><circle cx="434.000" cy="77" r="1.7" fill="#171715"/><circle cx="442.000" cy="77" r="1.7" fill="#171715"/><circle cx="450.000" cy="77" r="1.7" fill="#171715"/><circle cx="458.000" cy="77" r="1.7" fill="#171715"/><circle cx="466.000" cy="77" r="1.7" fill="#171715"/><circle cx="474.000" cy="77" r="1.7" fill="#171715"/><circle cx="482.000" cy="77" r="1.7" fill="#171715"/><circle cx="490.000" cy="77" r="1.7" fill="#171715"/><circle cx="498.000" cy="77" r="1.7" fill="#171715"/><circle cx="506.000" cy="77" r="1.7" fill="#171715"/><circle cx="514.000" cy="77" r="1.7" fill="#171715"/><circle cx="522.000" cy="77" r="1.7" fill="#171715"/><circle cx="530.000" cy="77" r="1.7" fill="#171715"/><circle cx="538.000" cy="77" r="1.7" fill="#171715"/><circle cx="546.000" cy="77" r="1.7" fill="#171715"/><circle cx="554.000" cy="77" r="1.7" fill="#171715"/><circle cx="562.000" cy="77" r="1.7" fill="#171715"/><circle cx="570.000" cy="77" r="1.7" fill="#171715"/><circle cx="578.000" cy="77" r="1.7" fill="#171715"/><circle cx="586.000" cy="77" r="1.7" fill="#171715"/><circle cx="594.000" cy="77" r="1.7" fill="#171715"/><circle cx="602.000" cy="77" r="1.7" fill="#171715"/><circle cx="610.000" cy="77" r="1.7" fill="#171715"/><circle cx="618.000" cy="77" r="1.7" fill="#171715"/><circle cx="626.000" cy="77" r="1.7" fill="#171715"/><circle cx="634.000" cy="77" r="1.7" fill="#171715"/><circle cx="642.000" cy="77" r="1.7" fill="#171715"/><circle cx="650.000" cy="77" r="1.7" fill="#171715"/><circle cx="658.000" cy="77" r="1.7" fill="#171715"/><circle cx="666.000" cy="77" r="1.7" fill="#171715"/><circle cx="674.000" cy="77" r="1.7" fill="#171715"/><circle cx="682.000" cy="77" r="1.7" fill="#171715"/><circle cx="690.000" cy="77" r="1.7" fill="#171715"/><circle cx="698.000" cy="77" r="1.7" fill="#171715"/><circle cx="706.000" cy="77" r="1.7" fill="#171715"/><circle cx="714.000" cy="77" r="1.7" fill="#171715"/><circle cx="722.000" cy="77" r="1.7" fill="#171715"/><circle cx="730.000" cy="77" r="1.7" fill="#171715"/><circle cx="738.000" cy="77" r="1.7" fill="#171715"/><circle cx="746.000" cy="77" r="1.7" fill="#171715"/><circle cx="754.000" cy="77" r="1.7" fill="#171715"/><circle cx="762.000" cy="77" r="1.7" fill="#171715"/><circle cx="770.000" cy="77" r="1.7" fill="#171715"/><circle cx="778.000" cy="77" r="1.7" fill="#171715"/><circle cx="786.000" cy="77" r="1.7" fill="#171715"/><circle cx="794.000" cy="77" r="1.7" fill="#171715"/><circle cx="802.000" cy="77" r="1.7" fill="#171715"/><circle cx="810.000" cy="77" r="1.7" fill="#171715"/><circle cx="818.000" cy="77" r="1.7" fill="#171715"/><circle cx="826.000" cy="77" r="1.7" fill="#171715"/><circle cx="834.000" cy="77" r="1.7" fill="#171715"/><circle cx="842.000" cy="77" r="1.7" fill="#171715"/><circle cx="850.000" cy="77" r="1.7" fill="#171715"/><path d="M25 118 H875" stroke="#625e57" stroke-width="1"/><rect x="30" y="143" width="250" height="80" fill="#e7e2d8"/><circle cx="54" cy="165" r="6" fill="none" stroke="#171715" stroke-width="1.4"/><circle cx="54" cy="201" r="6" fill="none" stroke="#171715" stroke-width="1.4"/><circle cx="83" cy="165" r="6" fill="none" stroke="#171715" stroke-width="1.4"/><circle cx="83" cy="201" r="6" fill="none" stroke="#171715" stroke-width="1.4"/><circle cx="112" cy="165" r="6" fill="none" stroke="#171715" stroke-width="1.4"/><circle cx="112" cy="201" r="6" fill="none" stroke="#171715" stroke-width="1.4"/><circle cx="141" cy="165" r="6" fill="none" stroke="#171715" stroke-width="1.4"/><circle cx="141" cy="201" r="6" fill="none" stroke="#171715" stroke-width="1.4"/><circle cx="170" cy="165" r="6" fill="none" stroke="#171715" stroke-width="1.4"/><circle cx="170" cy="201" r="6" fill="none" stroke="#171715" stroke-width="1.4"/><circle cx="199" cy="165" r="6" fill="none" stroke="#171715" stroke-width="1.4"/><circle cx="199" cy="201" r="6" fill="none" stroke="#171715" stroke-width="1.4"/><circle cx="228" cy="165" r="6" fill="none" stroke="#171715" stroke-width="1.4"/><circle cx="228" cy="201" r="6" fill="none" stroke="#171715" stroke-width="1.4"/><circle cx="257" cy="165" r="6" fill="none" stroke="#171715" stroke-width="1.4"/><circle cx="257" cy="201" r="6" fill="none" stroke="#171715" stroke-width="1.4"/><text x="318" y="177" fill="#f1eee7" font-family="IBM Plex Mono,monospace" font-size="25">SOURCE CIRCLES / Ø6 MM</text><text x="318" y="206" fill="#bdb7ad" font-family="IBM Plex Mono,monospace" font-size="20">1900.0 mm MEMBER · 2 ROWS</text></svg>
