<?xml version='1.0' encoding='utf-8'?>
<svg xmlns="http://www.w3.org/2000/svg" width="980" height="520" viewBox="110 170 980 520" role="img" aria-label="Pavilion saved study from retained Rhino and Grasshopper source"><title>V11 / saved source study</title><desc>Retained registered source-derived drawing. Not a live application screenshot or final construction proof.</desc><path d="M288.001,442.270 L468.976,521.553" fill="none" stroke="#171715" stroke-width="0.6" stroke-linejoin="round" /><path d="M287.171,443.435 L469.261,519.147" fill="none" stroke="#171715" stroke-width="0.6" stroke-linejoin="round" /><path d="M286.340,444.600 L469.546,516.742" fill="none" stroke="#171715" stroke-width="0.6" stroke-linejoin="round" /><path d="M285.510,445.765 L469.832,514.337" fill="none" stroke="#171715" stroke-width="0.6" stroke-linejoin="round" /><path d="M284.679,446.930 L470.117,511.932" fill="none" stroke="#171715" stroke-width="0.6" stroke-linejoin="round" /><path d="M283.848,448.095 L470.401,509.527" fill="none" stroke="#171715" stroke-width="0.6" stroke-linejoin="round" /><path d="M283.017,449.260 L470.686,507.122" fill="none" stroke="#171715" stroke-width="0.6" stroke-linejoin="round" /><path d="M282.187,450.425 L470.971,504.717" fill="none" stroke="#171715" stroke-width="0.6" stroke-linejoin="round" /><path d="M281.356,451.590 L471.256,502.311" fill="none" stroke="#171715" stroke-width="0.6" stroke-linejoin="round" /><path d="M280.524,452.756 L471.540,499.906" fill="none" stroke="#171715" stroke-width="0.6" stroke-linejoin="round" /><path d="M279.693,453.921 L471.825,497.501" fill="none" stroke="#171715" stroke-width="0.6" stroke-linejoin="round" /><path d="M278.862,455.086 L472.109,495.096" fill="none" stroke="#171715" stroke-width="0.6" stroke-linejoin="round" /><path d="M278.031,456.251 L472.394,492.691" fill="none" stroke="#171715" stroke-width="0.6" stroke-linejoin="round" /><path d="M277.199,457.416 L472.678,490.286" fill="none" stroke="#171715" stroke-width="0.6" stroke-linejoin="round" /><path d="M276.368,458.581 L472.962,487.881" fill="none" stroke="#171715" stroke-width="0.6" stroke-linejoin="round" /><path d="M275.536,459.746 L473.246,485.476" fill="none" stroke="#171715" stroke-width="0.6" stroke-linejoin="round" /><path d="M274.705,460.912 L473.530,483.070" fill="none" stroke="#171715" stroke-width="0.6" stroke-linejoin="round" /><path d="M273.873,462.077 L473.814,480.665" fill="none" stroke="#171715" stroke-width="0.6" stroke-linejoin="round" /><path d="M273.041,463.242 L474.098,478.260" fill="none" stroke="#171715" stroke-width="0.6" stroke-linejoin="round" /><path d="M272.209,464.407 L474.382,475.855" fill="none" stroke="#171715" stroke-width="0.6" stroke-linejoin="round" /><path d="M271.377,465.572 L474.666,473.450" fill="none" stroke="#171715" stroke-width="0.6" stroke-linejoin="round" /><path d="M270.545,466.738 L474.949,471.045" fill="none" stroke="#171715" stroke-width="0.6" stroke-linejoin="round" /><path d="M269.622,468.309 L475.142,469.046" fill="none" stroke="#171715" stroke-width="0.6" stroke-linejoin="round" /><path d="M268.797,469.475 L475.433,466.642" fill="none" stroke="#171715" stroke-width="0.6" stroke-linejoin="round" /><path d="M267.972,470.641 L475.724,464.238" fill="none" stroke="#171715" stroke-width="0.6" stroke-linejoin="round" /><path d="M267.147,471.807 L476.015,461.834" fill="none" stroke="#171715" stroke-width="0.6" stroke-linejoin="round" /><path d="M266.323,472.973 L476.305,459.429" fill="none" stroke="#171715" stroke-width="0.6" stroke-linejoin="round" /><path d="M265.498,474.139 L476.596,457.025" fill="none" stroke="#171715" stroke-width="0.6" stroke-linejoin="round" /><path d="M264.673,475.305 L476.887,454.621" fill="none" stroke="#171715" stroke-width="0.6" stroke-linejoin="round" /><path d="M263.847,476.471 L477.177,452.217" fill="none" stroke="#171715" stroke-width="0.6" stroke-linejoin="round" /><path d="M263.022,477.637 L477.468,449.812" fill="none" stroke="#171715" stroke-width="0.6" stroke-linejoin="round" /><path d="M262.197,478.803 L477.759,447.408" fill="none" stroke="#171715" stroke-width="0.6" stroke-linejoin="round" /><path d="M261.372,479.968 L478.049,445.003" fill="none" stroke="#171715" stroke-width="0.6" stroke-linejoin="round" /><path d="M260.547,481.134 L478.340,442.599" fill="none" stroke="#171715" stroke-width="0.6" stroke-linejoin="round" /><path d="M259.722,482.300 L478.630,440.195" fill="none" stroke="#171715" stroke-width="0.6" stroke-linejoin="round" /><path d="M258.897,483.466 L478.921,437.790" fill="none" stroke="#171715" stroke-width="0.6" stroke-linejoin="round" /><path d="M258.072,484.632 L479.211,435.386" fill="none" stroke="#171715" stroke-width="0.6" stroke-linejoin="round" /><path d="M257.246,485.797 L479.502,432.981" fill="none" stroke="#171715" stroke-width="0.6" stroke-linejoin="round" /><path d="M256.421,486.963 L479.792,430.577" fill="none" stroke="#171715" stroke-width="0.6" stroke-linejoin="round" /><path d="M255.596,488.129 L480.083,428.172" fill="none" stroke="#171715" stroke-width="0.6" stroke-linejoin="round" /><path d="M254.771,489.295 L480.373,425.767" fill="none" stroke="#171715" stroke-width="0.6" stroke-linejoin="round" /><path d="M253.945,490.460 L480.664,423.363" fill="none" stroke="#171715" stroke-width="0.6" stroke-linejoin="round" /><path d="M253.120,491.626 L480.954,420.958" fill="none" stroke="#171715" stroke-width="0.6" stroke-linejoin="round" /><path d="M252.295,492.791 L481.244,418.554" fill="none" stroke="#171715" stroke-width="0.6" stroke-linejoin="round" /><path d="M251.469,493.957 L481.535,416.149" fill="none" stroke="#171715" stroke-width="0.6" stroke-linejoin="round" /><path d="M250.644,495.123 L481.825,413.744" fill="none" stroke="#171715" stroke-width="0.6" stroke-linejoin="round" /><path d="M249.819,496.288 L482.115,411.340" fill="none" stroke="#171715" stroke-width="0.6" stroke-linejoin="round" /><path d="M248.993,497.454 L482.406,408.935" fill="none" stroke="#171715" stroke-width="0.6" stroke-linejoin="round" /><path d="M248.168,498.619 L482.696,406.530" fill="none" stroke="#171715" stroke-width="0.6" stroke-linejoin="round" /><path d="M247.342,499.785 L482.986,404.126" fill="none" stroke="#171715" stroke-width="0.6" stroke-linejoin="round" /><path d="M246.517,500.950 L483.276,401.721" fill="none" stroke="#171715" stroke-width="0.6" stroke-linejoin="round" /><path d="M245.691,502.116 L483.566,399.316" fill="none" stroke="#171715" stroke-width="0.6" stroke-linejoin="round" /><path d="M244.866,503.282 L483.856,396.911" fill="none" stroke="#171715" stroke-width="0.6" stroke-linejoin="round" /><path d="M244.040,504.447 L484.147,394.507" fill="none" stroke="#171715" stroke-width="0.6" stroke-linejoin="round" /><path d="M243.214,505.612 L484.437,392.102" fill="none" stroke="#171715" stroke-width="0.6" stroke-linejoin="round" /><path d="M242.389,506.778 L484.727,389.697" fill="none" stroke="#171715" stroke-width="0.6" stroke-linejoin="round" /><path d="M241.563,507.943 L485.017,387.292" fill="none" stroke="#171715" stroke-width="0.6" stroke-linejoin="round" /><path d="M240.737,509.109 L485.307,384.888" fill="none" stroke="#171715" stroke-width="0.6" stroke-linejoin="round" /><path d="M239.912,510.274 L485.597,382.483" fill="none" stroke="#171715" stroke-width="0.6" stroke-linejoin="round" /><path d="M239.086,511.440 L485.887,380.078" fill="none" stroke="#171715" stroke-width="0.6" stroke-linejoin="round" /><path d="M238.260,512.605 L486.177,377.673" fill="none" stroke="#171715" stroke-width="0.6" stroke-linejoin="round" /><path d="M237.434,513.771 L486.466,375.268" fill="none" stroke="#171715" stroke-width="0.6" stroke-linejoin="round" /><path d="M236.609,514.936 L486.756,372.863" fill="none" stroke="#171715" stroke-width="0.6" stroke-linejoin="round" /><path d="M235.783,516.101 L487.046,370.459" fill="none" stroke="#171715" stroke-width="0.6" stroke-linejoin="round" /><path d="M234.957,517.267 L487.336,368.054" fill="none" stroke="#171715" stroke-width="0.6" stroke-linejoin="round" /><path d="M234.131,518.432 L487.626,365.649" fill="none" stroke="#171715" stroke-width="0.6" stroke-linejoin="round" /><path d="M233.305,519.598 L487.916,363.244" fill="none" stroke="#171715" stroke-width="0.6" stroke-linejoin="round" /><path d="M232.479,520.763 L488.205,360.839" fill="none" stroke="#171715" stroke-width="0.6" stroke-linejoin="round" /><path d="M231.653,521.928 L488.495,358.434" fill="none" stroke="#171715" stroke-width="0.6" stroke-linejoin="round" /><path d="M230.827,523.094 L488.785,356.029" fill="none" stroke="#171715" stroke-width="0.6" stroke-linejoin="round" /><path d="M230.001,524.259 L489.074,353.625" fill="none" stroke="#171715" stroke-width="0.6" stroke-linejoin="round" /><path d="M229.175,525.424 L489.364,351.220" fill="none" stroke="#171715" stroke-width="0.6" stroke-linejoin="round" /><path d="M228.349,526.590 L489.654,348.815" fill="none" stroke="#171715" stroke-width="0.6" stroke-linejoin="round" /><path d="M227.523,527.755 L489.943,346.410" fill="none" stroke="#171715" stroke-width="0.6" stroke-linejoin="round" /><path d="M226.697,528.921 L490.233,344.005" fill="none" stroke="#171715" stroke-width="0.6" stroke-linejoin="round" /><path d="M225.871,530.086 L490.523,341.600" fill="none" stroke="#171715" stroke-width="0.6" stroke-linejoin="round" /><path d="M225.045,531.251 L490.812,339.195" fill="none" stroke="#171715" stroke-width="0.6" stroke-linejoin="round" /><path d="M224.218,532.417 L491.102,336.790" fill="none" stroke="#171715" stroke-width="0.6" stroke-linejoin="round" /><path d="M223.392,533.582 L491.391,334.385" fill="none" stroke="#171715" stroke-width="0.6" stroke-linejoin="round" /><path d="M222.566,534.747 L491.681,331.980" fill="none" stroke="#171715" stroke-width="0.6" stroke-linejoin="round" /><path d="M221.740,535.913 L491.970,329.576" fill="none" stroke="#171715" stroke-width="0.6" stroke-linejoin="round" /><path d="M220.913,537.078 L492.259,327.171" fill="none" stroke="#171715" stroke-width="0.6" stroke-linejoin="round" /><path d="M220.087,538.243 L492.549,324.766" fill="none" stroke="#171715" stroke-width="0.6" stroke-linejoin="round" /><path d="M219.261,539.409 L492.838,322.361" fill="none" stroke="#171715" stroke-width="0.6" stroke-linejoin="round" /><path d="M218.118,540.206 L492.811,319.588" fill="none" stroke="#171715" stroke-width="0.6" stroke-linejoin="round" /><path d="M217.288,541.373 L493.096,317.184" fill="none" stroke="#171715" stroke-width="0.6" stroke-linejoin="round" /><path d="M216.457,542.540 L493.382,314.781" fill="none" stroke="#171715" stroke-width="0.6" stroke-linejoin="round" /><path d="M215.627,543.706 L493.667,312.378" fill="none" stroke="#171715" stroke-width="0.6" stroke-linejoin="round" /><path d="M214.796,544.873 L493.952,309.974" fill="none" stroke="#171715" stroke-width="0.6" stroke-linejoin="round" /><path d="M213.966,546.040 L494.237,307.571" fill="none" stroke="#171715" stroke-width="0.6" stroke-linejoin="round" /><path d="M213.135,547.207 L494.523,305.167" fill="none" stroke="#171715" stroke-width="0.6" stroke-linejoin="round" /><path d="M212.305,548.373 L494.808,302.764" fill="none" stroke="#171715" stroke-width="0.6" stroke-linejoin="round" /><path d="M211.475,549.540 L495.093,300.360" fill="none" stroke="#171715" stroke-width="0.6" stroke-linejoin="round" /><path d="M210.934,550.938 L495.669,298.188" fill="none" stroke="#171715" stroke-width="0.6" stroke-linejoin="round" /><path d="M210.109,552.104 L495.959,295.783" fill="none" stroke="#171715" stroke-width="0.6" stroke-linejoin="round" /><path d="M209.284,553.269 L496.249,293.379" fill="none" stroke="#171715" stroke-width="0.6" stroke-linejoin="round" /><path d="M208.458,554.435 L496.540,290.974" fill="none" stroke="#171715" stroke-width="0.6" stroke-linejoin="round" /><path d="M207.633,555.601 L496.830,288.570" fill="none" stroke="#171715" stroke-width="0.6" stroke-linejoin="round" /><path d="M206.807,556.767 L497.120,286.165" fill="none" stroke="#171715" stroke-width="0.6" stroke-linejoin="round" /><path d="M205.889,557.953 L497.318,283.782" fill="none" stroke="#171715" stroke-width="0.6" stroke-linejoin="round" /><path d="M205.061,559.120 L497.605,281.378" fill="none" stroke="#171715" stroke-width="0.6" stroke-linejoin="round" /><path d="M569.006,488.917 L468.544,521.539" fill="none" stroke="#171715" stroke-width="0.6" stroke-linejoin="round" /><path d="M569.479,486.657 L468.836,519.134" fill="none" stroke="#171715" stroke-width="0.6" stroke-linejoin="round" /><path d="M569.951,484.396 L469.128,516.729" fill="none" stroke="#171715" stroke-width="0.6" stroke-linejoin="round" /><path d="M570.424,482.136 L469.421,514.324" fill="none" stroke="#171715" stroke-width="0.6" stroke-linejoin="round" /><path d="M570.897,479.875 L469.713,511.918" fill="none" stroke="#171715" stroke-width="0.6" stroke-linejoin="round" /><path d="M571.370,477.615 L470.006,509.513" fill="none" stroke="#171715" stroke-width="0.6" stroke-linejoin="round" /><path d="M571.844,475.355 L470.299,507.108" fill="none" stroke="#171715" stroke-width="0.6" stroke-linejoin="round" /><path d="M572.317,473.094 L470.592,504.702" fill="none" stroke="#171715" stroke-width="0.6" stroke-linejoin="round" /><path d="M572.791,470.834 L470.885,502.297" fill="none" stroke="#171715" stroke-width="0.6" stroke-linejoin="round" /><path d="M573.264,468.573 L471.179,499.892" fill="none" stroke="#171715" stroke-width="0.6" stroke-linejoin="round" /><path d="M573.738,466.313 L471.472,497.487" fill="none" stroke="#171715" stroke-width="0.6" stroke-linejoin="round" /><path d="M574.501,464.284 L472.054,495.313" fill="none" stroke="#171715" stroke-width="0.6" stroke-linejoin="round" /><path d="M574.963,462.026 L472.336,492.910" fill="none" stroke="#171715" stroke-width="0.6" stroke-linejoin="round" /><path d="M575.425,459.768 L472.618,490.507" fill="none" stroke="#171715" stroke-width="0.6" stroke-linejoin="round" /><path d="M575.888,457.510 L472.900,488.104" fill="none" stroke="#171715" stroke-width="0.6" stroke-linejoin="round" /><path d="M576.349,455.252 L473.182,485.701" fill="none" stroke="#171715" stroke-width="0.6" stroke-linejoin="round" /><path d="M576.811,452.994 L473.463,483.298" fill="none" stroke="#171715" stroke-width="0.6" stroke-linejoin="round" /><path d="M577.273,450.736 L473.744,480.895" fill="none" stroke="#171715" stroke-width="0.6" stroke-linejoin="round" /><path d="M577.734,448.478 L474.025,478.492" fill="none" stroke="#171715" stroke-width="0.6" stroke-linejoin="round" /><path d="M578.196,446.220 L474.306,476.089" fill="none" stroke="#171715" stroke-width="0.6" stroke-linejoin="round" /><path d="M578.657,443.962 L474.587,473.686" fill="none" stroke="#171715" stroke-width="0.6" stroke-linejoin="round" /><path d="M579.118,441.703 L474.868,471.283" fill="none" stroke="#171715" stroke-width="0.6" stroke-linejoin="round" /><path d="M579.579,439.445 L475.149,468.880" fill="none" stroke="#171715" stroke-width="0.6" stroke-linejoin="round" /><path d="M580.040,437.186 L475.429,466.477" fill="none" stroke="#171715" stroke-width="0.6" stroke-linejoin="round" /><path d="M580.501,434.928 L475.710,464.073" fill="none" stroke="#171715" stroke-width="0.6" stroke-linejoin="round" /><path d="M580.962,432.669 L475.990,461.670" fill="none" stroke="#171715" stroke-width="0.6" stroke-linejoin="round" /><path d="M581.422,430.411 L476.270,459.266" fill="none" stroke="#171715" stroke-width="0.6" stroke-linejoin="round" /><path d="M581.883,428.152 L476.551,456.863" fill="none" stroke="#171715" stroke-width="0.6" stroke-linejoin="round" /><path d="M582.344,425.893 L476.831,454.459" fill="none" stroke="#171715" stroke-width="0.6" stroke-linejoin="round" /><path d="M582.804,423.634 L477.111,452.055" fill="none" stroke="#171715" stroke-width="0.6" stroke-linejoin="round" /><path d="M583.265,421.375 L477.392,449.651" fill="none" stroke="#171715" stroke-width="0.6" stroke-linejoin="round" /><path d="M583.726,419.116 L477.672,447.247" fill="none" stroke="#171715" stroke-width="0.6" stroke-linejoin="round" /><path d="M584.102,416.438 L477.868,444.424" fill="none" stroke="#171715" stroke-width="0.6" stroke-linejoin="round" /><path d="M584.569,414.179 L478.154,442.020" fill="none" stroke="#171715" stroke-width="0.6" stroke-linejoin="round" /><path d="M585.035,411.920 L478.441,439.617" fill="none" stroke="#171715" stroke-width="0.6" stroke-linejoin="round" /><path d="M585.502,409.662 L478.727,437.213" fill="none" stroke="#171715" stroke-width="0.6" stroke-linejoin="round" /><path d="M585.969,407.403 L479.013,434.809" fill="none" stroke="#171715" stroke-width="0.6" stroke-linejoin="round" /><path d="M586.436,405.144 L479.300,432.406" fill="none" stroke="#171715" stroke-width="0.6" stroke-linejoin="round" /><path d="M586.902,402.885 L479.586,430.002" fill="none" stroke="#171715" stroke-width="0.6" stroke-linejoin="round" /><path d="M587.369,400.627 L479.872,427.598" fill="none" stroke="#171715" stroke-width="0.6" stroke-linejoin="round" /><path d="M587.836,398.368 L480.159,425.195" fill="none" stroke="#171715" stroke-width="0.6" stroke-linejoin="round" /><path d="M588.303,396.109 L480.445,422.791" fill="none" stroke="#171715" stroke-width="0.6" stroke-linejoin="round" /><path d="M588.770,393.850 L480.732,420.388" fill="none" stroke="#171715" stroke-width="0.6" stroke-linejoin="round" /><path d="M589.237,391.592 L481.019,417.984" fill="none" stroke="#171715" stroke-width="0.6" stroke-linejoin="round" /><path d="M589.704,389.333 L481.305,415.580" fill="none" stroke="#171715" stroke-width="0.6" stroke-linejoin="round" /><path d="M590.171,387.074 L481.592,413.177" fill="none" stroke="#171715" stroke-width="0.6" stroke-linejoin="round" /><path d="M590.638,384.815 L481.878,410.773" fill="none" stroke="#171715" stroke-width="0.6" stroke-linejoin="round" /><path d="M591.105,382.557 L482.165,408.369" fill="none" stroke="#171715" stroke-width="0.6" stroke-linejoin="round" /><path d="M591.572,380.298 L482.452,405.966" fill="none" stroke="#171715" stroke-width="0.6" stroke-linejoin="round" /><path d="M592.039,378.039 L482.739,403.562" fill="none" stroke="#171715" stroke-width="0.6" stroke-linejoin="round" /><path d="M592.506,375.780 L483.025,401.158" fill="none" stroke="#171715" stroke-width="0.6" stroke-linejoin="round" /><path d="M592.973,373.521 L483.312,398.755" fill="none" stroke="#171715" stroke-width="0.6" stroke-linejoin="round" /><path d="M593.441,371.263 L483.599,396.351" fill="none" stroke="#171715" stroke-width="0.6" stroke-linejoin="round" /><path d="M593.908,369.004 L483.886,393.947" fill="none" stroke="#171715" stroke-width="0.6" stroke-linejoin="round" /><path d="M594.375,366.745 L484.173,391.544" fill="none" stroke="#171715" stroke-width="0.6" stroke-linejoin="round" /><path d="M594.842,364.486 L484.460,389.140" fill="none" stroke="#171715" stroke-width="0.6" stroke-linejoin="round" /><path d="M595.310,362.228 L484.747,386.736" fill="none" stroke="#171715" stroke-width="0.6" stroke-linejoin="round" /><path d="M595.777,359.969 L485.034,384.333" fill="none" stroke="#171715" stroke-width="0.6" stroke-linejoin="round" /><path d="M596.244,357.710 L485.321,381.929" fill="none" stroke="#171715" stroke-width="0.6" stroke-linejoin="round" /><path d="M596.712,355.451 L485.607,379.525" fill="none" stroke="#171715" stroke-width="0.6" stroke-linejoin="round" /><path d="M597.179,353.193 L485.895,377.122" fill="none" stroke="#171715" stroke-width="0.6" stroke-linejoin="round" /><path d="M597.646,350.934 L486.182,374.718" fill="none" stroke="#171715" stroke-width="0.6" stroke-linejoin="round" /><path d="M598.114,348.675 L486.469,372.314" fill="none" stroke="#171715" stroke-width="0.6" stroke-linejoin="round" /><path d="M598.581,346.416 L486.756,369.911" fill="none" stroke="#171715" stroke-width="0.6" stroke-linejoin="round" /><path d="M599.049,344.157 L487.043,367.507" fill="none" stroke="#171715" stroke-width="0.6" stroke-linejoin="round" /><path d="M599.516,341.899 L487.330,365.103" fill="none" stroke="#171715" stroke-width="0.6" stroke-linejoin="round" /><path d="M599.984,339.640 L487.617,362.700" fill="none" stroke="#171715" stroke-width="0.6" stroke-linejoin="round" /><path d="M600.451,337.381 L487.904,360.296" fill="none" stroke="#171715" stroke-width="0.6" stroke-linejoin="round" /><path d="M600.919,335.122 L488.191,357.892" fill="none" stroke="#171715" stroke-width="0.6" stroke-linejoin="round" /><path d="M601.386,332.863 L488.478,355.489" fill="none" stroke="#171715" stroke-width="0.6" stroke-linejoin="round" /><path d="M601.854,330.605 L488.765,353.085" fill="none" stroke="#171715" stroke-width="0.6" stroke-linejoin="round" /><path d="M602.321,328.346 L489.053,350.681" fill="none" stroke="#171715" stroke-width="0.6" stroke-linejoin="round" /><path d="M602.789,326.087 L489.340,348.278" fill="none" stroke="#171715" stroke-width="0.6" stroke-linejoin="round" /><path d="M603.257,323.828 L489.627,345.874" fill="none" stroke="#171715" stroke-width="0.6" stroke-linejoin="round" /><path d="M603.724,321.569 L489.914,343.470" fill="none" stroke="#171715" stroke-width="0.6" stroke-linejoin="round" /><path d="M604.192,319.311 L490.202,341.066" fill="none" stroke="#171715" stroke-width="0.6" stroke-linejoin="round" /><path d="M604.659,317.052 L490.489,338.663" fill="none" stroke="#171715" stroke-width="0.6" stroke-linejoin="round" /><path d="M605.039,315.160 L490.688,336.626" fill="none" stroke="#171715" stroke-width="0.6" stroke-linejoin="round" /><path d="M605.505,312.900 L490.974,334.221" fill="none" stroke="#171715" stroke-width="0.6" stroke-linejoin="round" /><path d="M605.971,310.640 L491.260,331.816" fill="none" stroke="#171715" stroke-width="0.6" stroke-linejoin="round" /><path d="M606.438,308.380 L491.546,329.411" fill="none" stroke="#171715" stroke-width="0.6" stroke-linejoin="round" /><path d="M606.904,306.120 L491.832,327.007" fill="none" stroke="#171715" stroke-width="0.6" stroke-linejoin="round" /><path d="M607.370,303.860 L492.118,324.602" fill="none" stroke="#171715" stroke-width="0.6" stroke-linejoin="round" /><path d="M607.837,301.600 L492.404,322.197" fill="none" stroke="#171715" stroke-width="0.6" stroke-linejoin="round" /><path d="M608.303,299.340 L492.690,319.792" fill="none" stroke="#171715" stroke-width="0.6" stroke-linejoin="round" /><path d="M608.770,297.080 L492.976,317.387" fill="none" stroke="#171715" stroke-width="0.6" stroke-linejoin="round" /><path d="M609.237,294.820 L493.262,314.982" fill="none" stroke="#171715" stroke-width="0.6" stroke-linejoin="round" /><path d="M609.703,292.560 L493.549,312.578" fill="none" stroke="#171715" stroke-width="0.6" stroke-linejoin="round" /><path d="M610.170,290.301 L493.835,310.173" fill="none" stroke="#171715" stroke-width="0.6" stroke-linejoin="round" /><path d="M610.637,288.041 L494.122,307.768" fill="none" stroke="#171715" stroke-width="0.6" stroke-linejoin="round" /><path d="M611.104,285.781 L494.408,305.363" fill="none" stroke="#171715" stroke-width="0.6" stroke-linejoin="round" /><path d="M611.571,283.521 L494.695,302.959" fill="none" stroke="#171715" stroke-width="0.6" stroke-linejoin="round" /><path d="M612.038,281.261 L494.981,300.554" fill="none" stroke="#171715" stroke-width="0.6" stroke-linejoin="round" /><path d="M612.505,279.001 L495.268,298.149" fill="none" stroke="#171715" stroke-width="0.6" stroke-linejoin="round" /><path d="M612.972,276.742 L495.555,295.745" fill="none" stroke="#171715" stroke-width="0.6" stroke-linejoin="round" /><path d="M613.439,274.482 L495.841,293.340" fill="none" stroke="#171715" stroke-width="0.6" stroke-linejoin="round" /><path d="M613.906,272.222 L496.128,290.935" fill="none" stroke="#171715" stroke-width="0.6" stroke-linejoin="round" /><path d="M614.373,269.962 L496.415,288.531" fill="none" stroke="#171715" stroke-width="0.6" stroke-linejoin="round" /><path d="M614.840,267.702 L496.702,286.126" fill="none" stroke="#171715" stroke-width="0.6" stroke-linejoin="round" /><path d="M615.307,265.443 L496.988,283.721" fill="none" stroke="#171715" stroke-width="0.6" stroke-linejoin="round" /><path d="M615.775,263.183 L497.275,281.317" fill="none" stroke="#171715" stroke-width="0.6" stroke-linejoin="round" /><path d="M759.464,524.069 L615.948,263.334" fill="none" stroke="#171715" stroke-width="0.6" stroke-linejoin="round" /><path d="M760.696,521.000 L615.480,265.594" fill="none" stroke="#171715" stroke-width="0.6" stroke-linejoin="round" /><path d="M761.928,517.932 L615.011,267.854" fill="none" stroke="#171715" stroke-width="0.6" stroke-linejoin="round" /><path d="M763.160,514.863 L614.543,270.114" fill="none" stroke="#171715" stroke-width="0.6" stroke-linejoin="round" /><path d="M764.392,511.795 L614.075,272.374" fill="none" stroke="#171715" stroke-width="0.6" stroke-linejoin="round" /><path d="M765.624,508.727 L613.607,274.635" fill="none" stroke="#171715" stroke-width="0.6" stroke-linejoin="round" /><path d="M766.857,505.659 L613.139,276.895" fill="none" stroke="#171715" stroke-width="0.6" stroke-linejoin="round" /><path d="M768.089,502.590 L612.671,279.155" fill="none" stroke="#171715" stroke-width="0.6" stroke-linejoin="round" /><path d="M769.135,499.374 L612.017,281.268" fill="none" stroke="#171715" stroke-width="0.6" stroke-linejoin="round" /><path d="M770.369,496.309 L611.550,283.531" fill="none" stroke="#171715" stroke-width="0.6" stroke-linejoin="round" /><path d="M771.603,493.244 L611.084,285.795" fill="none" stroke="#171715" stroke-width="0.6" stroke-linejoin="round" /><path d="M772.837,490.179 L610.618,288.058" fill="none" stroke="#171715" stroke-width="0.6" stroke-linejoin="round" /><path d="M774.072,487.115 L610.152,290.322" fill="none" stroke="#171715" stroke-width="0.6" stroke-linejoin="round" /><path d="M775.306,484.050 L609.686,292.586" fill="none" stroke="#171715" stroke-width="0.6" stroke-linejoin="round" /><path d="M776.541,480.986 L609.221,294.850" fill="none" stroke="#171715" stroke-width="0.6" stroke-linejoin="round" /><path d="M777.776,477.921 L608.755,297.115" fill="none" stroke="#171715" stroke-width="0.6" stroke-linejoin="round" /><path d="M779.011,474.857 L608.290,299.379" fill="none" stroke="#171715" stroke-width="0.6" stroke-linejoin="round" /><path d="M780.246,471.793 L607.825,301.643" fill="none" stroke="#171715" stroke-width="0.6" stroke-linejoin="round" /><path d="M781.482,468.729 L607.361,303.908" fill="none" stroke="#171715" stroke-width="0.6" stroke-linejoin="round" /><path d="M782.718,465.665 L606.896,306.173" fill="none" stroke="#171715" stroke-width="0.6" stroke-linejoin="round" /><path d="M783.954,462.602 L606.432,308.438" fill="none" stroke="#171715" stroke-width="0.6" stroke-linejoin="round" /><path d="M785.190,459.538 L605.968,310.703" fill="none" stroke="#171715" stroke-width="0.6" stroke-linejoin="round" /><path d="M786.427,456.474 L605.504,312.968" fill="none" stroke="#171715" stroke-width="0.6" stroke-linejoin="round" /><path d="M787.664,453.411 L605.041,315.233" fill="none" stroke="#171715" stroke-width="0.6" stroke-linejoin="round" /><path d="M788.901,450.348 L604.578,317.498" fill="none" stroke="#171715" stroke-width="0.6" stroke-linejoin="round" /><path d="M790.138,447.285 L604.115,319.763" fill="none" stroke="#171715" stroke-width="0.6" stroke-linejoin="round" /><path d="M791.796,443.857 L604.072,321.665" fill="none" stroke="#171715" stroke-width="0.6" stroke-linejoin="round" /><path d="M793.022,440.782 L603.598,323.918" fill="none" stroke="#171715" stroke-width="0.6" stroke-linejoin="round" /><path d="M794.247,437.706 L603.123,326.170" fill="none" stroke="#171715" stroke-width="0.6" stroke-linejoin="round" /><path d="M795.473,434.630 L602.648,328.423" fill="none" stroke="#171715" stroke-width="0.6" stroke-linejoin="round" /><path d="M796.697,431.554 L602.173,330.676" fill="none" stroke="#171715" stroke-width="0.6" stroke-linejoin="round" /><path d="M797.922,428.479 L601.697,332.929" fill="none" stroke="#171715" stroke-width="0.6" stroke-linejoin="round" /><path d="M799.146,425.403 L601.221,335.182" fill="none" stroke="#171715" stroke-width="0.6" stroke-linejoin="round" /><path d="M800.370,422.328 L600.744,337.435" fill="none" stroke="#171715" stroke-width="0.6" stroke-linejoin="round" /><path d="M801.594,419.252 L600.268,339.688" fill="none" stroke="#171715" stroke-width="0.6" stroke-linejoin="round" /><path d="M802.731,416.542 L599.705,342.306" fill="none" stroke="#171715" stroke-width="0.6" stroke-linejoin="round" /><path d="M803.960,413.472 L599.233,344.565" fill="none" stroke="#171715" stroke-width="0.6" stroke-linejoin="round" /><path d="M805.189,410.403 L598.762,346.824" fill="none" stroke="#171715" stroke-width="0.6" stroke-linejoin="round" /><path d="M806.419,407.334 L598.291,349.084" fill="none" stroke="#171715" stroke-width="0.6" stroke-linejoin="round" /><path d="M807.648,404.264 L597.820,351.343" fill="none" stroke="#171715" stroke-width="0.6" stroke-linejoin="round" /><path d="M808.877,401.195 L597.349,353.602" fill="none" stroke="#171715" stroke-width="0.6" stroke-linejoin="round" /><path d="M810.107,398.126 L596.878,355.861" fill="none" stroke="#171715" stroke-width="0.6" stroke-linejoin="round" /><path d="M811.336,395.056 L596.408,358.120" fill="none" stroke="#171715" stroke-width="0.6" stroke-linejoin="round" /><path d="M812.565,391.987 L595.937,360.380" fill="none" stroke="#171715" stroke-width="0.6" stroke-linejoin="round" /><path d="M813.795,388.918 L595.466,362.639" fill="none" stroke="#171715" stroke-width="0.6" stroke-linejoin="round" /><path d="M815.024,385.848 L594.995,364.898" fill="none" stroke="#171715" stroke-width="0.6" stroke-linejoin="round" /><path d="M816.254,382.779 L594.524,367.157" fill="none" stroke="#171715" stroke-width="0.6" stroke-linejoin="round" /><path d="M817.483,379.709 L594.053,369.416" fill="none" stroke="#171715" stroke-width="0.6" stroke-linejoin="round" /><path d="M818.713,376.640 L593.583,371.676" fill="none" stroke="#171715" stroke-width="0.6" stroke-linejoin="round" /><path d="M819.943,373.571 L593.112,373.935" fill="none" stroke="#171715" stroke-width="0.6" stroke-linejoin="round" /><path d="M821.172,370.501 L592.641,376.194" fill="none" stroke="#171715" stroke-width="0.6" stroke-linejoin="round" /><path d="M822.402,367.432 L592.171,378.453" fill="none" stroke="#171715" stroke-width="0.6" stroke-linejoin="round" /><path d="M823.632,364.362 L591.700,380.712" fill="none" stroke="#171715" stroke-width="0.6" stroke-linejoin="round" /><path d="M824.861,361.293 L591.230,382.971" fill="none" stroke="#171715" stroke-width="0.6" stroke-linejoin="round" /><path d="M826.091,358.224 L590.759,385.230" fill="none" stroke="#171715" stroke-width="0.6" stroke-linejoin="round" /><path d="M827.321,355.154 L590.289,387.489" fill="none" stroke="#171715" stroke-width="0.6" stroke-linejoin="round" /><path d="M828.551,352.085 L589.818,389.748" fill="none" stroke="#171715" stroke-width="0.6" stroke-linejoin="round" /><path d="M829.781,349.015 L589.348,392.008" fill="none" stroke="#171715" stroke-width="0.6" stroke-linejoin="round" /><path d="M831.011,345.946 L588.877,394.267" fill="none" stroke="#171715" stroke-width="0.6" stroke-linejoin="round" /><path d="M832.241,342.876 L588.407,396.526" fill="none" stroke="#171715" stroke-width="0.6" stroke-linejoin="round" /><path d="M833.470,339.807 L587.937,398.785" fill="none" stroke="#171715" stroke-width="0.6" stroke-linejoin="round" /><path d="M834.700,336.737 L587.466,401.044" fill="none" stroke="#171715" stroke-width="0.6" stroke-linejoin="round" /><path d="M835.842,333.249 L586.907,402.884" fill="none" stroke="#171715" stroke-width="0.6" stroke-linejoin="round" /><path d="M837.067,330.181 L586.433,405.145" fill="none" stroke="#171715" stroke-width="0.6" stroke-linejoin="round" /><path d="M838.293,327.113 L585.958,407.405" fill="none" stroke="#171715" stroke-width="0.6" stroke-linejoin="round" /><path d="M839.520,324.045 L585.484,409.666" fill="none" stroke="#171715" stroke-width="0.6" stroke-linejoin="round" /><path d="M840.746,320.977 L585.010,411.926" fill="none" stroke="#171715" stroke-width="0.6" stroke-linejoin="round" /><path d="M841.973,317.909 L584.537,414.187" fill="none" stroke="#171715" stroke-width="0.6" stroke-linejoin="round" /><path d="M843.200,314.841 L584.063,416.447" fill="none" stroke="#171715" stroke-width="0.6" stroke-linejoin="round" /><path d="M844.427,311.773 L583.590,418.708" fill="none" stroke="#171715" stroke-width="0.6" stroke-linejoin="round" /><path d="M845.654,308.705 L583.117,420.969" fill="none" stroke="#171715" stroke-width="0.6" stroke-linejoin="round" /><path d="M846.881,305.637 L582.644,423.229" fill="none" stroke="#171715" stroke-width="0.6" stroke-linejoin="round" /><path d="M848.109,302.570 L582.172,425.490" fill="none" stroke="#171715" stroke-width="0.6" stroke-linejoin="round" /><path d="M849.337,299.502 L581.699,427.751" fill="none" stroke="#171715" stroke-width="0.6" stroke-linejoin="round" /><path d="M850.565,296.434 L581.227,430.012" fill="none" stroke="#171715" stroke-width="0.6" stroke-linejoin="round" /><path d="M851.793,293.366 L580.755,432.272" fill="none" stroke="#171715" stroke-width="0.6" stroke-linejoin="round" /><path d="M853.021,290.298 L580.283,434.533" fill="none" stroke="#171715" stroke-width="0.6" stroke-linejoin="round" /><path d="M854.250,287.231 L579.811,436.794" fill="none" stroke="#171715" stroke-width="0.6" stroke-linejoin="round" /><path d="M855.479,284.163 L579.339,439.055" fill="none" stroke="#171715" stroke-width="0.6" stroke-linejoin="round" /><path d="M856.707,281.095 L578.868,441.315" fill="none" stroke="#171715" stroke-width="0.6" stroke-linejoin="round" /><path d="M857.936,278.027 L578.396,443.576" fill="none" stroke="#171715" stroke-width="0.6" stroke-linejoin="round" /><path d="M859.165,274.959 L577.925,445.837" fill="none" stroke="#171715" stroke-width="0.6" stroke-linejoin="round" /><path d="M860.394,271.891 L577.454,448.098" fill="none" stroke="#171715" stroke-width="0.6" stroke-linejoin="round" /><path d="M861.624,268.824 L576.983,450.358" fill="none" stroke="#171715" stroke-width="0.6" stroke-linejoin="round" /><path d="M862.853,265.756 L576.512,452.619" fill="none" stroke="#171715" stroke-width="0.6" stroke-linejoin="round" /><path d="M864.082,262.688 L576.041,454.880" fill="none" stroke="#171715" stroke-width="0.6" stroke-linejoin="round" /><path d="M865.312,259.620 L575.570,457.140" fill="none" stroke="#171715" stroke-width="0.6" stroke-linejoin="round" /><path d="M866.542,256.552 L575.100,459.401" fill="none" stroke="#171715" stroke-width="0.6" stroke-linejoin="round" /><path d="M867.771,253.484 L574.629,461.661" fill="none" stroke="#171715" stroke-width="0.6" stroke-linejoin="round" /><path d="M869.001,250.416 L574.159,463.922" fill="none" stroke="#171715" stroke-width="0.6" stroke-linejoin="round" /><path d="M870.231,247.348 L573.688,466.182" fill="none" stroke="#171715" stroke-width="0.6" stroke-linejoin="round" /><path d="M871.461,244.280 L573.218,468.443" fill="none" stroke="#171715" stroke-width="0.6" stroke-linejoin="round" /><path d="M872.691,241.212 L572.748,470.703" fill="none" stroke="#171715" stroke-width="0.6" stroke-linejoin="round" /><path d="M873.921,238.144 L572.277,472.964" fill="none" stroke="#171715" stroke-width="0.6" stroke-linejoin="round" /><path d="M875.151,235.076 L571.807,475.224" fill="none" stroke="#171715" stroke-width="0.6" stroke-linejoin="round" /><path d="M876.382,232.007 L571.337,477.485" fill="none" stroke="#171715" stroke-width="0.6" stroke-linejoin="round" /><path d="M877.612,228.939 L570.867,479.745" fill="none" stroke="#171715" stroke-width="0.6" stroke-linejoin="round" /><path d="M878.842,225.871 L570.397,482.006" fill="none" stroke="#171715" stroke-width="0.6" stroke-linejoin="round" /><path d="M880.073,222.803 L569.927,484.266" fill="none" stroke="#171715" stroke-width="0.6" stroke-linejoin="round" /><path d="M881.734,220.201 L569.889,486.992" fill="none" stroke="#171715" stroke-width="0.6" stroke-linejoin="round" /><path d="M882.968,217.130 L569.422,489.250" fill="none" stroke="#171715" stroke-width="0.6" stroke-linejoin="round" /><path d="M1024.939,569.824 L759.431,523.965" fill="none" stroke="#171715" stroke-width="0.6" stroke-linejoin="round" /><path d="M1023.146,570.560 L760.659,520.895" fill="none" stroke="#171715" stroke-width="0.6" stroke-linejoin="round" /><path d="M1021.353,571.295 L761.888,517.825" fill="none" stroke="#171715" stroke-width="0.6" stroke-linejoin="round" /><path d="M1019.560,572.031 L763.117,514.755" fill="none" stroke="#171715" stroke-width="0.6" stroke-linejoin="round" /><path d="M1017.767,572.767 L764.346,511.685" fill="none" stroke="#171715" stroke-width="0.6" stroke-linejoin="round" /><path d="M1015.974,573.502 L765.574,508.615" fill="none" stroke="#171715" stroke-width="0.6" stroke-linejoin="round" /><path d="M1014.182,574.238 L766.803,505.545" fill="none" stroke="#171715" stroke-width="0.6" stroke-linejoin="round" /><path d="M1012.389,574.973 L768.032,502.474" fill="none" stroke="#171715" stroke-width="0.6" stroke-linejoin="round" /><path d="M1010.596,575.709 L769.261,499.404" fill="none" stroke="#171715" stroke-width="0.6" stroke-linejoin="round" /><path d="M1008.803,576.444 L770.489,496.334" fill="none" stroke="#171715" stroke-width="0.6" stroke-linejoin="round" /><path d="M1007.010,577.180 L771.718,493.264" fill="none" stroke="#171715" stroke-width="0.6" stroke-linejoin="round" /><path d="M1005.217,577.915 L772.946,490.194" fill="none" stroke="#171715" stroke-width="0.6" stroke-linejoin="round" /><path d="M1003.424,578.650 L774.175,487.123" fill="none" stroke="#171715" stroke-width="0.6" stroke-linejoin="round" /><path d="M1001.631,579.386 L775.404,484.053" fill="none" stroke="#171715" stroke-width="0.6" stroke-linejoin="round" /><path d="M999.837,580.121 L776.632,480.983" fill="none" stroke="#171715" stroke-width="0.6" stroke-linejoin="round" /><path d="M998.044,580.857 L777.861,477.912" fill="none" stroke="#171715" stroke-width="0.6" stroke-linejoin="round" /><path d="M996.251,581.592 L779.089,474.842" fill="none" stroke="#171715" stroke-width="0.6" stroke-linejoin="round" /><path d="M994.458,582.327 L780.318,471.771" fill="none" stroke="#171715" stroke-width="0.6" stroke-linejoin="round" /><path d="M992.665,583.062 L781.546,468.701" fill="none" stroke="#171715" stroke-width="0.6" stroke-linejoin="round" /><path d="M990.872,583.798 L782.775,465.630" fill="none" stroke="#171715" stroke-width="0.6" stroke-linejoin="round" /><path d="M989.079,584.533 L784.003,462.560" fill="none" stroke="#171715" stroke-width="0.6" stroke-linejoin="round" /><path d="M987.286,585.268 L785.232,459.489" fill="none" stroke="#171715" stroke-width="0.6" stroke-linejoin="round" /><path d="M985.493,586.003 L786.460,456.419" fill="none" stroke="#171715" stroke-width="0.6" stroke-linejoin="round" /><path d="M983.700,586.738 L787.689,453.348" fill="none" stroke="#171715" stroke-width="0.6" stroke-linejoin="round" /><path d="M981.907,587.473 L788.918,450.278" fill="none" stroke="#171715" stroke-width="0.6" stroke-linejoin="round" /><path d="M980.114,588.208 L790.146,447.207" fill="none" stroke="#171715" stroke-width="0.6" stroke-linejoin="round" /><path d="M978.320,588.943 L791.375,444.136" fill="none" stroke="#171715" stroke-width="0.6" stroke-linejoin="round" /><path d="M976.527,589.678 L792.603,441.066" fill="none" stroke="#171715" stroke-width="0.6" stroke-linejoin="round" /><path d="M974.734,590.413 L793.832,437.995" fill="none" stroke="#171715" stroke-width="0.6" stroke-linejoin="round" /><path d="M972.941,591.148 L795.061,434.924" fill="none" stroke="#171715" stroke-width="0.6" stroke-linejoin="round" /><path d="M971.148,591.883 L796.289,431.853" fill="none" stroke="#171715" stroke-width="0.6" stroke-linejoin="round" /><path d="M969.356,592.618 L797.518,428.783" fill="none" stroke="#171715" stroke-width="0.6" stroke-linejoin="round" /><path d="M967.563,593.353 L798.747,425.712" fill="none" stroke="#171715" stroke-width="0.6" stroke-linejoin="round" /><path d="M965.770,594.088 L799.975,422.641" fill="none" stroke="#171715" stroke-width="0.6" stroke-linejoin="round" /><path d="M963.977,594.822 L801.204,419.570" fill="none" stroke="#171715" stroke-width="0.6" stroke-linejoin="round" /><path d="M962.184,595.557 L802.433,416.499" fill="none" stroke="#171715" stroke-width="0.6" stroke-linejoin="round" /><path d="M960.391,596.292 L803.662,413.428" fill="none" stroke="#171715" stroke-width="0.6" stroke-linejoin="round" /><path d="M958.599,597.027 L804.891,410.357" fill="none" stroke="#171715" stroke-width="0.6" stroke-linejoin="round" /><path d="M956.806,597.761 L806.120,407.286" fill="none" stroke="#171715" stroke-width="0.6" stroke-linejoin="round" /><path d="M955.013,598.496 L807.349,404.215" fill="none" stroke="#171715" stroke-width="0.6" stroke-linejoin="round" /><path d="M953.221,599.231 L808.578,401.144" fill="none" stroke="#171715" stroke-width="0.6" stroke-linejoin="round" /><path d="M951.428,599.965 L809.807,398.073" fill="none" stroke="#171715" stroke-width="0.6" stroke-linejoin="round" /><path d="M949.636,600.700 L811.036,395.002" fill="none" stroke="#171715" stroke-width="0.6" stroke-linejoin="round" /><path d="M947.843,601.434 L812.265,391.931" fill="none" stroke="#171715" stroke-width="0.6" stroke-linejoin="round" /><path d="M946.051,602.169 L813.495,388.860" fill="none" stroke="#171715" stroke-width="0.6" stroke-linejoin="round" /><path d="M944.259,602.904 L814.724,385.789" fill="none" stroke="#171715" stroke-width="0.6" stroke-linejoin="round" /><path d="M942.467,603.638 L815.954,382.718" fill="none" stroke="#171715" stroke-width="0.6" stroke-linejoin="round" /><path d="M940.674,604.373 L817.183,379.646" fill="none" stroke="#171715" stroke-width="0.6" stroke-linejoin="round" /><path d="M938.882,605.107 L818.413,376.575" fill="none" stroke="#171715" stroke-width="0.6" stroke-linejoin="round" /><path d="M937.090,605.842 L819.642,373.504" fill="none" stroke="#171715" stroke-width="0.6" stroke-linejoin="round" /><path d="M935.298,606.576 L820.872,370.433" fill="none" stroke="#171715" stroke-width="0.6" stroke-linejoin="round" /><path d="M933.507,607.311 L822.102,367.362" fill="none" stroke="#171715" stroke-width="0.6" stroke-linejoin="round" /><path d="M932.285,607.930 L823.902,364.175" fill="none" stroke="#171715" stroke-width="0.6" stroke-linejoin="round" /><path d="M930.279,608.846 L824.917,361.286" fill="none" stroke="#171715" stroke-width="0.6" stroke-linejoin="round" /><path d="M928.490,609.582 L826.150,358.216" fill="none" stroke="#171715" stroke-width="0.6" stroke-linejoin="round" /><path d="M926.700,610.318 L827.382,355.146" fill="none" stroke="#171715" stroke-width="0.6" stroke-linejoin="round" /><path d="M924.910,611.054 L828.614,352.076" fill="none" stroke="#171715" stroke-width="0.6" stroke-linejoin="round" /><path d="M923.121,611.789 L829.846,349.006" fill="none" stroke="#171715" stroke-width="0.6" stroke-linejoin="round" /><path d="M921.331,612.525 L831.078,345.936" fill="none" stroke="#171715" stroke-width="0.6" stroke-linejoin="round" /><path d="M919.542,613.261 L832.310,342.867" fill="none" stroke="#171715" stroke-width="0.6" stroke-linejoin="round" /><path d="M917.752,613.997 L833.542,339.797" fill="none" stroke="#171715" stroke-width="0.6" stroke-linejoin="round" /><path d="M915.962,614.733 L834.774,336.727" fill="none" stroke="#171715" stroke-width="0.6" stroke-linejoin="round" /><path d="M914.173,615.469 L836.006,333.657" fill="none" stroke="#171715" stroke-width="0.6" stroke-linejoin="round" /><path d="M912.383,616.205 L837.238,330.588" fill="none" stroke="#171715" stroke-width="0.6" stroke-linejoin="round" /><path d="M910.454,616.704 L838.331,327.281" fill="none" stroke="#171715" stroke-width="0.6" stroke-linejoin="round" /><path d="M908.665,617.440 L839.562,324.212" fill="none" stroke="#171715" stroke-width="0.6" stroke-linejoin="round" /><path d="M906.875,618.177 L840.794,321.142" fill="none" stroke="#171715" stroke-width="0.6" stroke-linejoin="round" /><path d="M905.085,618.913 L842.026,318.073" fill="none" stroke="#171715" stroke-width="0.6" stroke-linejoin="round" /><path d="M903.295,619.650 L843.258,315.004" fill="none" stroke="#171715" stroke-width="0.6" stroke-linejoin="round" /><path d="M901.506,620.386 L844.490,311.935" fill="none" stroke="#171715" stroke-width="0.6" stroke-linejoin="round" /><path d="M899.716,621.122 L845.722,308.865" fill="none" stroke="#171715" stroke-width="0.6" stroke-linejoin="round" /><path d="M897.926,621.859 L846.954,305.796" fill="none" stroke="#171715" stroke-width="0.6" stroke-linejoin="round" /><path d="M896.136,622.595 L848.186,302.727" fill="none" stroke="#171715" stroke-width="0.6" stroke-linejoin="round" /><path d="M894.347,623.332 L849.418,299.658" fill="none" stroke="#171715" stroke-width="0.6" stroke-linejoin="round" /><path d="M892.557,624.068 L850.650,296.588" fill="none" stroke="#171715" stroke-width="0.6" stroke-linejoin="round" /><path d="M890.767,624.805 L851.881,293.519" fill="none" stroke="#171715" stroke-width="0.6" stroke-linejoin="round" /><path d="M888.978,625.541 L853.113,290.450" fill="none" stroke="#171715" stroke-width="0.6" stroke-linejoin="round" /><path d="M887.188,626.277 L854.345,287.381" fill="none" stroke="#171715" stroke-width="0.6" stroke-linejoin="round" /><path d="M885.398,627.014 L855.577,284.311" fill="none" stroke="#171715" stroke-width="0.6" stroke-linejoin="round" /><path d="M883.608,627.750 L856.809,281.242" fill="none" stroke="#171715" stroke-width="0.6" stroke-linejoin="round" /><path d="M881.819,628.487 L858.041,278.173" fill="none" stroke="#171715" stroke-width="0.6" stroke-linejoin="round" /><path d="M880.029,629.223 L859.273,275.103" fill="none" stroke="#171715" stroke-width="0.6" stroke-linejoin="round" /><path d="M878.239,629.959 L860.505,272.034" fill="none" stroke="#171715" stroke-width="0.6" stroke-linejoin="round" /><path d="M876.450,630.696 L861.737,268.965" fill="none" stroke="#171715" stroke-width="0.6" stroke-linejoin="round" /><path d="M874.660,631.432 L862.969,265.896" fill="none" stroke="#171715" stroke-width="0.6" stroke-linejoin="round" /><path d="M872.870,632.169 L864.201,262.826" fill="none" stroke="#171715" stroke-width="0.6" stroke-linejoin="round" /><path d="M871.080,632.905 L865.433,259.757" fill="none" stroke="#171715" stroke-width="0.6" stroke-linejoin="round" /><path d="M869.291,633.641 L866.664,256.688" fill="none" stroke="#171715" stroke-width="0.6" stroke-linejoin="round" /><path d="M867.501,634.378 L867.896,253.618" fill="none" stroke="#171715" stroke-width="0.6" stroke-linejoin="round" /><path d="M865.711,635.114 L869.128,250.549" fill="none" stroke="#171715" stroke-width="0.6" stroke-linejoin="round" /><path d="M863.922,635.850 L870.360,247.480" fill="none" stroke="#171715" stroke-width="0.6" stroke-linejoin="round" /><path d="M862.132,636.587 L871.592,244.410" fill="none" stroke="#171715" stroke-width="0.6" stroke-linejoin="round" /><path d="M860.342,637.323 L872.824,241.341" fill="none" stroke="#171715" stroke-width="0.6" stroke-linejoin="round" /><path d="M858.552,638.059 L874.056,238.272" fill="none" stroke="#171715" stroke-width="0.6" stroke-linejoin="round" /><path d="M856.763,638.796 L875.288,235.202" fill="none" stroke="#171715" stroke-width="0.6" stroke-linejoin="round" /><path d="M854.973,639.532 L876.520,232.133" fill="none" stroke="#171715" stroke-width="0.6" stroke-linejoin="round" /><path d="M853.183,640.268 L877.752,229.064" fill="none" stroke="#171715" stroke-width="0.6" stroke-linejoin="round" /><path d="M851.394,641.005 L878.984,225.994" fill="none" stroke="#171715" stroke-width="0.6" stroke-linejoin="round" /><path d="M849.604,641.741 L880.216,222.925" fill="none" stroke="#171715" stroke-width="0.6" stroke-linejoin="round" /><path d="M847.814,642.477 L881.448,219.856" fill="none" stroke="#171715" stroke-width="0.6" stroke-linejoin="round" /><path d="M846.024,643.214 L882.679,216.786" fill="none" stroke="#171715" stroke-width="0.6" stroke-linejoin="round" /></svg>